<?xml version="1.0" standalone="no"?>
<!DOCTYPE svg PUBLIC "-//W3C//DTD SVG 20010904//EN"
 "http://www.w3.org/TR/2001/REC-SVG-20010904/DTD/svg10.dtd">
<svg version="1.0" xmlns="http://www.w3.org/2000/svg"
 width="300" viewBox="0 0 3288.000000 1759.000000"
 preserveAspectRatio="xMidYMid meet">

<g transform="translate(0.000000,1759.000000) scale(0.100000,-0.100000)"
fill="#000000" stroke="none">
<path d="M20298 13170 c-181 -15 -389 -65 -566 -135 -49 -19 -105 -35 -125
-35 -19 0 -86 -9 -149 -19 -511 -88 -939 -412 -1192 -902 -152 -293 -216 -548
-216 -859 -1 -220 24 -371 92 -565 l31 -90 -31 -45 c-17 -25 -38 -69 -45 -99
l-14 -53 -70 88 c-80 102 -161 211 -222 301 l-42 63 23 72 c15 51 22 99 22
158 1 107 -25 171 -94 233 -42 38 -46 45 -38 67 13 35 12 169 -2 221 -72 265
-331 429 -618 389 -187 -25 -318 -94 -467 -245 -217 -219 -340 -453 -352 -670
-17 -294 196 -541 576 -669 l102 -34 81 -118 c340 -498 838 -1020 1322 -1386
67 -50 125 -94 129 -98 5 -4 -8 -54 -28 -111 -29 -85 -34 -108 -25 -129 18
-44 359 -258 631 -395 l147 -74 -14 -68 c-8 -38 -64 -303 -125 -591 -60 -288
-112 -544 -116 -569 l-6 -45 -372 -248 c-205 -137 -375 -256 -379 -265 -13
-34 -5 -65 24 -99 l31 -34 -33 -25 c-18 -13 -116 -84 -218 -158 -102 -73 -281
-204 -398 -291 -117 -87 -217 -158 -223 -158 -6 0 -25 11 -42 24 -87 66 -276
136 -367 136 -156 0 -332 -97 -386 -215 -75 -160 32 -351 328 -588 184 -147
455 -317 505 -317 20 0 59 25 141 90 280 222 675 473 1141 725 l144 78 29 -34
c16 -19 50 -60 76 -92 50 -61 80 -76 121 -60 14 5 243 161 509 346 450 315
485 337 525 337 41 0 56 -12 462 -351 231 -193 438 -364 459 -380 62 -46 77
-41 182 62 l93 91 98 -68 c401 -278 797 -600 1071 -871 86 -85 131 -123 147
-123 44 0 331 136 508 241 138 82 219 143 303 231 125 129 161 243 112 349
-65 140 -233 239 -402 239 -94 0 -179 -21 -287 -71 l-88 -41 -74 68 c-41 38
-153 143 -248 234 -96 91 -247 232 -336 314 l-163 149 35 39 c34 37 41 60 29
93 -4 9 -155 131 -335 272 -202 157 -329 262 -329 273 0 9 -27 280 -60 601
-33 321 -61 599 -62 617 l-3 33 125 48 c194 74 339 138 535 236 218 109 215
105 185 232 -11 49 -23 95 -26 104 -3 13 24 34 108 84 551 330 1089 784 1487
1253 89 105 108 122 140 128 141 23 292 77 409 146 89 52 202 170 244 255 49
97 62 165 55 288 -15 313 -279 730 -547 865 -190 96 -410 103 -577 20 -171
-85 -297 -311 -273 -487 6 -41 5 -42 -44 -75 -67 -45 -116 -136 -123 -230 -5
-58 8 -172 23 -212 3 -8 -24 -48 -67 -98 -111 -126 -291 -318 -299 -318 -4 0
-10 20 -13 45 -4 25 -16 64 -28 86 l-21 42 41 88 c227 488 210 1101 -44 1608
-103 204 -195 330 -367 501 -175 175 -360 304 -603 421 -366 177 -801 260
-1187 229z m454 -166 c600 -77 1155 -409 1467 -877 67 -100 161 -296 200 -417
132 -408 113 -854 -50 -1220 -31 -69 -34 -72 -62 -66 -16 3 -38 6 -48 6 -16 0
-19 8 -19 58 0 141 -47 441 -96 610 l-24 83 20 26 c27 35 26 84 -2 110 -19 17
-40 22 -113 25 -71 3 -103 10 -149 31 -132 61 -230 165 -262 278 -16 58 -49
99 -80 99 -28 0 -63 -24 -74 -50 -9 -21 -8 -44 4 -104 26 -121 10 -156 -68
-156 -65 1 -145 33 -231 94 -120 86 -195 204 -203 321 -2 41 -11 77 -19 87
-22 25 -60 30 -93 13 -30 -16 -34 -25 -59 -147 -17 -80 -59 -159 -101 -186
-29 -20 -45 -23 -97 -20 -50 3 -71 10 -113 38 -179 121 -321 506 -279 761 l13
82 -28 23 c-37 32 -71 30 -107 -6 -22 -22 -45 -32 -92 -40 -611 -107 -1101
-474 -1367 -1025 -103 -213 -188 -491 -212 -698 l-12 -108 -46 3 -45 3 -36
110 c-154 462 -71 986 226 1430 158 238 328 393 566 519 94 50 253 108 344
125 33 7 101 23 150 36 50 14 129 31 176 39 47 8 138 31 201 50 107 32 235 60
318 69 100 11 389 6 502 -9z m-712 -738 c0 -24 7 -82 15 -129 53 -303 210
-564 393 -654 67 -33 187 -44 256 -23 57 17 117 61 151 110 l29 42 15 -23 c9
-13 43 -53 76 -88 171 -181 405 -262 546 -190 20 10 46 31 57 46 l19 27 54
-47 c65 -57 163 -110 245 -133 l62 -17 26 -86 c78 -256 112 -523 95 -745 -53
-709 -384 -1219 -934 -1441 -111 -44 -274 -88 -420 -112 -85 -14 -167 -18
-365 -18 -275 0 -380 11 -595 62 -707 166 -1118 626 -1210 1353 -26 204 -17
470 23 645 127 555 383 956 772 1208 163 105 308 168 515 222 174 46 175 46
175 -9z m-2807 -461 c123 -32 198 -91 251 -195 39 -79 52 -150 37 -206 l-10
-39 -70 -3 -69 -3 -46 58 c-80 100 -83 103 -113 103 -80 0 -97 -70 -38 -157
19 -29 35 -56 35 -61 0 -5 -27 -25 -60 -44 l-60 -36 -21 34 c-24 40 -47 54
-85 54 -72 0 -85 -73 -29 -160 20 -31 33 -61 29 -70 -3 -8 -8 -30 -11 -47 -7
-44 -25 -41 -64 7 -38 47 -60 56 -99 40 -43 -18 -55 -56 -36 -121 17 -57 21
-129 7 -129 -5 0 -25 7 -44 15 -72 30 -129 -27 -100 -100 9 -26 101 -65 153
-65 77 0 127 44 145 128 9 42 39 43 91 1 22 -17 53 -38 71 -45 114 -49 373 36
373 122 0 34 -37 74 -70 74 -15 0 -57 -13 -92 -30 -45 -22 -78 -30 -116 -30
-52 0 -53 1 -68 37 -13 30 -14 44 -5 74 24 80 177 176 319 201 66 11 71 10
117 -13 100 -50 119 -132 66 -286 -35 -103 -38 -136 -13 -161 9 -9 44 -55 76
-102 93 -133 228 -310 319 -417 47 -56 90 -118 100 -145 27 -70 78 -130 138
-162 32 -17 101 -75 172 -145 107 -105 124 -126 173 -221 30 -58 66 -125 81
-150 l26 -45 -98 -242 c-83 -208 -100 -241 -114 -234 -25 14 -276 216 -366
294 -402 350 -757 749 -1031 1157 -78 117 -95 136 -125 143 -288 72 -491 214
-565 394 -71 174 16 430 230 676 127 148 253 225 421 261 46 9 135 5 188 -9z
m6452 -340 c97 -25 197 -81 266 -149 214 -212 360 -539 329 -734 -37 -226
-285 -401 -633 -447 -26 -3 -52 -12 -57 -18 -404 -512 -950 -993 -1525 -1344
-84 -52 -121 -69 -126 -61 -4 7 -37 119 -74 249 l-67 236 51 66 c28 37 73 105
101 151 45 73 67 96 168 177 64 52 134 99 154 105 91 28 167 95 202 179 7 17
87 104 177 195 90 91 205 213 254 270 50 58 102 117 118 132 33 31 33 32 6
138 -46 181 -1 293 124 307 92 11 250 -66 334 -161 52 -59 63 -103 36 -148
-34 -58 -86 -50 -246 38 -37 21 -80 4 -98 -37 -17 -43 0 -72 71 -118 122 -79
261 -92 346 -33 26 19 57 32 74 32 28 0 30 -3 30 -36 0 -49 27 -102 64 -126
36 -23 132 -21 181 3 64 31 71 109 12 137 -21 10 -35 10 -67 1 -22 -7 -43 -9
-47 -5 -4 3 3 39 16 79 34 110 35 119 11 150 -31 39 -72 36 -121 -8 -46 -42
-57 -43 -64 -10 -3 14 -7 36 -10 50 -4 17 3 34 23 57 68 79 79 121 42 158 -34
34 -82 27 -122 -18 l-35 -39 -56 41 c-31 23 -56 44 -56 48 -1 3 19 30 44 59
51 60 59 105 25 139 -38 38 -72 27 -150 -51 l-70 -71 -48 7 c-86 12 -91 15
-98 51 -23 122 109 309 249 353 76 24 181 26 262 6z m-5291 -1117 c6 -122 17
-231 32 -299 5 -26 5 -26 -38 -18 -24 4 -46 8 -50 9 -20 1 -88 75 -100 108 -7
20 -12 73 -12 118 0 138 44 214 124 214 l37 0 7 -132z m3901 -82 c53 -23 70
-64 70 -176 0 -83 -4 -102 -27 -150 -34 -67 -80 -101 -148 -108 -28 -2 -50 -2
-50 1 0 3 11 51 24 107 14 55 32 149 41 208 9 59 18 113 20 120 6 16 28 15 70
-2z m-3256 -1255 c174 -129 373 -221 636 -296 6 -1 24 -35 40 -75 38 -94 113
-208 173 -261 63 -56 167 -105 254 -119 207 -35 410 82 543 313 40 69 55 86
74 87 41 0 250 50 345 82 185 62 363 159 504 275 47 39 68 50 73 41 8 -15 102
-346 149 -523 17 -66 33 -128 36 -137 4 -14 -18 -29 -103 -71 -221 -111 -584
-263 -607 -254 -8 3 -17 55 -25 143 -7 76 -17 147 -23 157 -22 42 -97 43 -124
2 -14 -21 -8 -89 56 -712 39 -378 77 -746 85 -818 7 -71 10 -133 6 -137 -14
-15 -240 -68 -376 -88 -182 -28 -555 -38 -756 -21 -339 29 -607 85 -846 177
-66 25 -93 40 -93 52 0 9 75 374 166 811 154 732 166 796 153 820 -20 35 -58
47 -95 30 -31 -15 -36 -29 -79 -231 l-16 -78 -102 51 c-190 96 -547 311 -547
330 0 18 238 631 256 660 2 4 39 -29 83 -71 43 -43 115 -106 160 -139z m961
-358 c76 -10 188 -16 332 -17 l216 -1 -16 -29 c-30 -52 -126 -142 -182 -172
-47 -24 -67 -29 -135 -29 -98 0 -170 30 -239 98 -39 40 -106 139 -106 160 0 9
-2 10 130 -10z m-1501 -2894 c106 -127 192 -231 190 -233 -2 -2 -44 -25 -94
-51 -49 -27 -145 -80 -213 -118 -68 -38 -129 -66 -136 -64 -35 14 -260 312
-303 401 -15 33 -16 39 -3 46 8 5 89 63 180 129 91 66 170 120 175 120 6 0 97
-104 204 -230z m3475 -54 c96 -88 175 -163 175 -167 2 -15 -137 -173 -248
-282 -112 -108 -123 -117 -141 -105 -16 12 -388 278 -399 285 -8 7 414 434
426 432 7 -2 91 -75 187 -163z m-4129 -140 c39 -66 157 -225 232 -313 l42 -48
-66 -39 c-36 -21 -147 -92 -246 -157 -99 -66 -185 -117 -191 -114 -37 15 -187
151 -237 213 -63 79 -129 190 -129 216 0 14 4 14 35 -4 22 -13 42 -18 56 -14
12 4 117 78 233 165 116 87 216 159 222 159 6 1 28 -28 49 -64z m-790 -103
l50 -20 0 -83 c0 -71 4 -93 28 -143 59 -126 159 -252 284 -356 l82 -68 -71
-56 -71 -56 -36 22 c-386 231 -646 470 -659 609 -5 49 -3 51 41 93 65 63 133
87 227 82 42 -2 97 -13 125 -24z m5415 -222 c214 -204 227 -212 285 -174 33
22 31 8 -6 -52 -74 -116 -185 -219 -329 -305 -61 -36 -72 -40 -88 -28 -9 8
-53 46 -97 84 -44 39 -137 117 -208 174 l-127 104 132 132 c73 73 153 160 178
193 25 34 49 61 53 62 5 0 98 -85 207 -190z m750 -85 c78 -40 140 -110 140
-157 0 -118 -220 -297 -587 -479 l-184 -92 -65 66 -65 66 43 27 c133 81 230
164 308 260 85 107 112 164 115 244 l3 65 38 12 c57 18 210 11 254 -12z"/>
<path d="M19577 11783 c-4 -3 -7 -19 -7 -34 0 -23 15 -39 96 -98 97 -71 120
-81 142 -59 30 30 13 55 -83 127 -87 65 -129 84 -148 64z"/>
<path d="M19490 10822 c-42 -22 -95 -98 -111 -155 -21 -80 17 -178 87 -224 38
-24 112 -22 156 5 69 42 97 157 67 266 -27 96 -124 149 -199 108z"/>
<path d="M21075 10747 c-38 -17 -93 -79 -113 -126 -22 -53 -20 -128 6 -177 58
-112 170 -136 252 -54 67 67 75 191 19 289 -38 68 -104 95 -164 68z"/>
<path d="M20250 10615 c-15 -18 -7 -71 16 -103 20 -29 69 -30 84 -2 13 24 -2
80 -27 105 -19 19 -57 19 -73 0z"/>
<path d="M19770 9979 c-167 -11 -218 -19 -235 -35 -19 -19 -19 -44 -1 -69 7
-11 16 -44 20 -73 9 -68 51 -202 84 -267 96 -191 251 -321 442 -372 102 -27
321 -24 425 5 256 74 420 254 485 535 42 182 37 219 -28 236 -151 39 -856 63
-1192 40z m955 -119 c61 -5 126 -12 146 -16 l36 -5 -12 -67 c-66 -340 -278
-522 -610 -522 -226 0 -384 80 -501 251 -58 86 -88 157 -114 276 l-18 82 42 6
c89 11 155 13 531 9 215 -2 440 -8 500 -14z"/>
<path d="M3775 13045 c-414 -59 -802 -219 -1128 -467 -180 -137 -391 -368
-498 -545 -252 -416 -339 -929 -238 -1398 42 -195 133 -419 220 -539 l42 -59
1 -121 c2 -96 6 -133 23 -178 59 -160 173 -237 352 -239 l76 0 40 -81 c88
-181 225 -356 384 -493 l92 -79 -103 -27 c-117 -31 -222 -68 -313 -110 -34
-15 -99 -42 -145 -59 -342 -126 -792 -353 -1200 -604 -126 -78 -139 -84 -205
-90 -301 -28 -524 -197 -573 -432 -12 -56 -11 -66 23 -174 13 -41 26 -87 29
-101 3 -15 22 -50 41 -79 19 -29 35 -58 35 -66 0 -32 43 -97 84 -126 34 -24
45 -38 50 -67 8 -48 47 -104 93 -132 30 -19 52 -24 108 -24 55 0 78 -5 106
-22 19 -12 62 -29 94 -38 193 -50 373 32 463 211 30 60 75 191 87 256 6 30 20
46 93 101 109 82 201 138 319 194 112 53 327 125 443 148 47 9 93 19 102 21
14 4 24 -10 49 -64 17 -40 40 -75 53 -82 18 -9 66 -8 227 4 298 22 452 28 468
18 31 -21 25 -971 -9 -1339 -12 -130 5 -153 113 -153 l47 0 0 -103 c0 -169 39
-446 85 -600 8 -28 14 -51 12 -52 -1 0 -29 -9 -61 -19 -46 -14 -73 -31 -118
-74 -111 -106 -158 -226 -166 -425 -5 -147 8 -248 46 -352 36 -96 122 -186
201 -209 165 -48 286 18 330 180 l11 41 102 -53 c349 -178 662 -226 916 -140
148 51 203 94 251 196 20 45 26 74 29 166 l4 111 133 7 c567 28 925 226 952
526 9 101 -35 236 -120 368 -31 48 -42 74 -36 83 5 8 9 27 9 43 0 24 -23 52
-123 155 -121 124 -407 449 -407 462 0 4 27 17 60 29 87 32 110 53 110 98 0
130 -149 838 -274 1306 -31 115 -55 210 -54 212 2 1 67 32 144 68 147 68 368
183 465 242 81 49 84 62 42 211 -19 65 -24 98 -16 100 23 8 335 224 450 311
383 292 785 688 1064 1048 l79 101 97 23 c132 30 214 58 366 123 152 65 200
97 231 151 44 78 41 155 -9 214 -30 36 -31 44 -6 66 26 23 51 99 51 150 -1
104 -87 196 -185 196 l-34 0 26 58 c36 79 38 181 4 235 -43 70 -141 101 -232
72 -30 -9 -59 -18 -65 -21 -7 -3 -11 13 -12 43 -4 204 -215 249 -381 83 -27
-27 -81 -98 -121 -159 l-73 -111 -49 46 c-82 77 -190 115 -267 94 -101 -27
-147 -112 -145 -270 1 -103 12 -168 51 -302 l26 -88 -86 -114 c-122 -160 -286
-346 -462 -522 -148 -149 -396 -376 -403 -369 -2 1 10 47 27 101 17 54 31 106
31 115 0 11 20 24 62 39 157 57 235 213 208 416 -13 103 -38 174 -80 225 -30
37 -30 38 -14 81 30 84 64 255 76 385 67 741 -407 1533 -1080 1803 -170 68
-408 120 -552 120 -25 0 -105 18 -177 39 -231 70 -320 84 -568 87 -151 2 -251
-1 -320 -11z m161 -144 c-3 -5 7 -13 22 -19 22 -7 29 -7 29 3 0 7 -9 11 -21 8
-20 -3 -21 -3 -1 6 28 13 135 14 135 0 0 -5 -5 -7 -12 -3 -7 5 -8 3 -3 -6 6
-10 10 -10 20 3 13 18 99 22 88 4 -4 -6 -1 -7 8 -2 17 11 93 6 97 -5 2 -5 10
-6 18 -3 8 3 14 0 14 -6 0 -6 5 -11 11 -11 5 0 7 5 3 11 -4 8 4 9 27 4 47 -10
51 -14 44 -38 -2 -12 -2 -16 1 -9 3 6 10 10 15 7 5 -4 6 1 3 9 -4 11 0 16 15
16 12 0 21 -5 21 -11 0 -5 -5 -7 -12 -3 -7 5 -8 3 -3 -5 5 -9 10 -10 18 -2 17
17 33 13 46 -11 6 -13 9 -15 6 -5 -3 13 -1 16 8 10 6 -4 19 -8 27 -8 8 0 14
-5 13 -12 -4 -18 26 -38 38 -26 8 8 7 11 -4 10 -9 -1 -15 3 -14 8 1 6 11 9 22
8 11 -1 41 -3 67 -5 25 -1 45 -5 42 -9 -2 -4 6 -5 18 -1 15 4 19 2 13 -8 -6
-9 -4 -10 9 -3 27 15 128 -6 121 -25 -4 -12 -3 -13 10 -2 12 10 21 10 45 0 18
-7 27 -17 23 -24 -5 -8 -3 -8 8 0 22 17 67 11 84 -11 9 -13 13 -14 10 -4 -4
10 0 16 9 16 8 0 12 -5 9 -10 -4 -6 0 -8 10 -4 10 4 31 4 48 0 23 -4 27 -8 17
-15 -10 -7 -8 -8 5 -4 22 7 78 -4 72 -14 -3 -5 3 -6 13 -3 11 2 25 -1 33 -9 8
-7 20 -13 27 -14 29 -2 33 -5 27 -14 -4 -6 -12 -7 -18 -3 -22 14 -38 12 -35
-5 4 -20 26 -23 52 -6 20 14 55 4 89 -24 9 -9 17 -12 17 -8 0 3 11 -1 24 -10
16 -10 23 -22 20 -32 -5 -14 -3 -14 6 1 9 14 15 16 26 6 7 -6 12 -15 9 -19 -3
-4 2 -11 11 -14 9 -3 12 -2 8 5 -5 9 33 -8 46 -21 3 -3 14 -10 24 -16 25 -13
32 -34 12 -34 -10 0 -13 6 -10 18 4 13 3 14 -4 4 -5 -8 -12 -13 -16 -13 -3 1
-5 -2 -4 -6 2 -5 18 -9 36 -11 26 -3 32 0 26 9 -4 7 9 0 29 -15 20 -16 34 -32
31 -37 -3 -5 0 -9 6 -9 6 0 8 -4 5 -10 -3 -5 0 -7 9 -4 24 9 201 -177 192
-202 -3 -8 -2 -13 2 -11 8 2 34 -22 67 -62 11 -14 14 -21 8 -17 -7 4 -13 2
-13 -3 0 -6 5 -11 11 -11 19 0 48 -44 38 -56 -7 -8 -4 -11 8 -10 11 0 17 -5
17 -16 -1 -10 2 -16 6 -13 10 6 24 -25 21 -44 -2 -8 2 -10 11 -5 7 4 10 4 6
-1 -4 -4 -1 -17 7 -29 8 -11 15 -28 15 -37 0 -9 7 -22 16 -30 16 -13 54 -82
54 -96 0 -4 -7 0 -15 11 -13 18 -14 18 -12 -2 0 -11 5 -18 9 -16 4 3 8 0 8 -6
0 -6 4 -9 8 -6 10 6 54 -112 47 -124 -3 -5 -1 -10 5 -12 5 -1 11 -20 12 -40 2
-21 6 -38 9 -38 4 0 9 -10 12 -22 7 -27 -12 -41 -33 -25 -12 10 -13 10 -4 -3
6 -8 10 -23 9 -33 -3 -15 -1 -16 11 -6 11 9 14 7 14 -10 0 -12 -4 -20 -9 -16
-5 3 -12 1 -15 -4 -4 -5 2 -8 11 -7 22 3 29 32 13 51 -9 10 -9 15 -1 15 10 0
19 -26 20 -60 1 -8 3 -28 6 -45 28 -176 26 -334 -4 -336 -11 -1 -10 -3 4 -7
l20 -5 -20 -8 c-17 -6 -17 -8 -2 -8 17 -1 23 -21 10 -35 -4 -3 -7 -20 -7 -36
-1 -16 -5 -29 -11 -27 -5 1 -9 5 -8 9 2 4 -5 5 -15 2 -14 -5 -13 -3 3 11 13
10 16 18 9 23 -6 4 -14 14 -17 22 -3 8 -5 2 -4 -15 1 -17 -3 -30 -10 -30 -19
0 -28 -15 -9 -15 9 0 14 -4 11 -10 -3 -5 0 -7 9 -4 31 12 43 -62 16 -101 -3
-5 -7 -23 -8 -39 -2 -36 -10 -45 -22 -26 -14 22 -12 52 3 45 6 -4 5 -1 -4 7
-16 14 -36 74 -21 64 5 -3 9 1 9 9 0 8 -4 12 -8 10 -14 -9 -30 57 -18 72 9 11
8 12 -5 7 -9 -3 -16 -2 -16 4 0 6 -3 18 -7 28 -3 10 -2 15 3 12 5 -4 10 10 10
29 1 22 -2 30 -7 22 -4 -7 -5 -17 -2 -23 3 -5 1 -6 -6 -2 -6 4 -9 11 -6 16 3
5 0 12 -6 16 -8 4 -7 9 2 15 11 7 11 9 -2 9 -9 0 -19 7 -22 14 -4 11 -1 13 11
9 13 -5 12 -1 -4 13 -22 20 -54 92 -59 133 -1 13 -8 27 -15 31 -7 5 -10 17 -5
31 4 14 3 19 -2 12 -6 -9 -12 -6 -22 10 -8 12 -10 19 -6 15 8 -7 35 15 35 28
0 5 -5 3 -12 -4 -7 -7 -17 -12 -23 -12 -14 0 -49 77 -47 102 1 10 -4 15 -11
12 -20 -7 -41 44 -26 62 6 8 16 11 22 7 6 -3 7 -1 3 6 -4 6 -10 9 -14 7 -4 -2
-13 2 -20 10 -8 9 -9 14 -2 14 6 0 8 5 4 11 -4 8 -9 7 -15 -2 -5 -8 -2 -20 8
-31 12 -13 13 -18 3 -18 -20 0 -40 33 -29 47 7 7 6 14 -2 19 -8 4 -9 3 -5 -4
4 -7 3 -12 -3 -12 -10 0 -27 39 -23 53 1 5 -2 6 -7 3 -5 -3 -24 12 -42 35 -20
25 -28 43 -22 47 7 5 5 12 -5 22 -14 13 -15 12 -8 -5 5 -15 0 -13 -23 9 -22
21 -30 36 -27 53 3 13 1 21 -5 18 -5 -4 -6 -12 -2 -18 4 -7 -7 2 -25 20 -32
32 -42 51 -19 36 16 -10 58 -12 52 -2 -3 4 -13 6 -23 4 -19 -3 -44 13 -37 24
2 4 -2 8 -10 8 -11 0 -12 -4 -4 -14 6 -7 8 -13 3 -13 -5 0 -28 20 -52 45 -24
25 -46 45 -50 45 -4 0 -18 13 -32 29 -13 17 -27 28 -31 25 -4 -2 -14 5 -22 16
-7 11 -17 17 -22 12 -4 -4 -5 1 -2 10 4 13 2 15 -10 11 -12 -5 -14 -3 -8 7 5
8 4 11 -3 6 -17 -10 -51 15 -44 32 3 10 1 13 -6 8 -13 -8 -82 25 -101 48 -8 9
-22 16 -32 16 -11 0 -19 5 -19 11 0 5 -4 7 -10 4 -5 -3 -10 -1 -10 5 0 6 -5 8
-12 4 -7 -5 -9 -2 -6 8 5 11 0 14 -19 10 -14 -3 -23 -1 -20 4 3 5 -6 10 -20
11 -29 1 -45 20 -39 45 2 10 1 17 -3 16 -19 -2 -31 3 -26 12 3 6 1 10 -5 10
-7 0 -10 -6 -7 -14 3 -8 1 -16 -6 -19 -6 -2 -3 -6 7 -10 10 -4 15 -3 11 3 -3
6 -2 10 3 10 5 0 12 -8 14 -18 5 -18 3 -18 -38 -3 -23 8 -40 20 -37 25 4 5 1
6 -6 2 -7 -5 -21 0 -33 11 -12 10 -18 12 -14 6 7 -14 -19 -8 -40 8 -6 5 -14 6
-17 2 -4 -3 -17 2 -29 13 -12 10 -18 14 -15 7 8 -13 -34 -4 -70 15 -11 6 -29
8 -41 5 -13 -3 -22 -1 -22 6 0 5 -7 8 -15 5 -8 -4 -22 -1 -30 6 -8 7 -15 10
-15 6 0 -3 -12 4 -26 17 -24 21 -109 43 -98 25 3 -4 0 -8 -6 -8 -6 0 -15 -11
-22 -25 -6 -13 -14 -23 -17 -21 -3 2 -5 -17 -5 -42 1 -28 -4 -54 -13 -64 -9
-9 -10 -18 -5 -22 6 -3 9 -14 7 -24 -14 -68 -15 -70 -34 -65 -10 3 -22 -1 -26
-8 -5 -8 -4 -10 4 -5 19 12 45 -2 33 -17 -6 -6 -11 -16 -11 -22 -1 -5 -5 -10
-11 -10 -5 0 -9 -4 -8 -10 2 -5 6 -9 10 -8 8 3 3 -26 -13 -74 -6 -21 -15 -31
-22 -26 -7 3 -9 3 -5 -2 4 -4 2 -15 -5 -23 -9 -13 -9 -14 1 -8 18 11 16 4 -33
-100 -25 -52 -50 -92 -55 -89 -5 3 -7 0 -4 -8 3 -8 -5 -23 -18 -33 -13 -11
-23 -26 -23 -34 0 -8 -7 -14 -15 -12 -8 2 -12 0 -8 -4 4 -4 -6 -24 -23 -46
-17 -21 -34 -37 -36 -34 -3 3 -17 -9 -30 -25 -14 -17 -32 -28 -39 -25 -7 3
-16 0 -20 -6 -4 -7 -3 -8 4 -4 7 4 12 5 12 2 0 -3 -24 -19 -54 -36 -29 -17
-62 -40 -72 -52 -12 -14 -13 -18 -4 -13 12 7 13 6 3 -6 -10 -12 -7 -22 18 -52
36 -43 61 -47 122 -16 240 122 421 406 503 787 13 61 22 82 33 82 36 0 227
-52 313 -85 125 -49 282 -131 381 -202 110 -78 297 -266 379 -383 167 -235
320 -613 364 -898 22 -142 22 -439 1 -584 -56 -375 -192 -653 -432 -887 -304
-295 -764 -463 -1335 -487 -534 -22 -972 126 -1275 431 -118 119 -201 236
-284 403 -35 68 -70 126 -82 133 -15 8 -38 8 -86 -1 -184 -32 -293 65 -293
261 0 127 41 171 164 175 46 2 74 8 84 18 13 13 16 53 17 253 1 250 13 364 58
541 l22 86 90 26 c197 58 379 168 554 336 43 41 83 74 90 74 6 0 11 3 11 8 1
4 9 17 20 30 15 18 23 21 36 14 16 -9 15 -10 -4 -16 -12 -4 -22 -12 -22 -19 0
-8 3 -8 12 1 18 18 26 15 43 -18 10 -19 23 -30 37 -30 20 0 20 1 3 20 -10 11
-22 17 -28 13 -6 -4 -8 0 -4 10 4 10 2 16 -5 14 -7 -1 -12 4 -13 11 0 7 -6 17
-14 22 -20 12 4 41 26 33 12 -5 15 -2 10 9 -7 20 23 65 33 48 5 -8 9 -7 13 5
4 9 3 13 -3 10 -18 -11 -11 11 9 29 12 11 25 15 33 10 11 -6 11 -5 0 8 -11 14
-7 22 25 54 21 20 31 34 23 30 -9 -5 -8 -2 2 7 10 8 15 16 13 19 -3 3 1 11 10
18 12 10 18 10 30 0 12 -10 14 -8 10 9 -2 12 -6 25 -10 30 -3 5 2 17 12 26 9
10 22 38 29 64 11 44 11 47 -14 69 -14 12 -31 23 -39 23 -40 4 -71 3 -69 -1 1
-3 -9 -16 -22 -30 -14 -14 -22 -20 -18 -13 3 6 2 15 -4 18 -6 4 -10 3 -9 -2 5
-29 -2 -63 -13 -57 -7 4 -8 3 -4 -4 8 -14 -51 -105 -64 -97 -5 3 -12 0 -16 -6
-4 -8 -3 -9 4 -5 7 4 12 3 12 -2 0 -6 -7 -13 -16 -16 -8 -3 -12 -10 -9 -16 3
-6 -1 -13 -9 -16 -9 -3 -16 -11 -16 -17 0 -13 -30 -47 -42 -47 -5 0 -7 4 -4 8
3 5 -1 9 -9 9 -10 0 -12 -4 -5 -12 5 -7 6 -16 2 -20 -4 -5 0 -5 8 -1 8 4 0 -6
-18 -23 -18 -17 -29 -31 -26 -31 4 0 -1 -9 -11 -20 -10 -11 -23 -17 -29 -13
-6 3 -8 2 -3 -2 4 -5 -3 -19 -15 -32 -22 -24 -45 -32 -32 -11 5 7 3 8 -7 2 -8
-5 -17 -9 -21 -9 -14 0 -19 -13 -7 -21 8 -5 10 -3 4 6 -5 9 -4 11 4 6 17 -11
4 -25 -20 -21 -17 4 -19 2 -8 -11 10 -12 8 -19 -10 -38 -13 -13 -30 -23 -39
-21 -9 1 -27 -1 -38 -6 -14 -5 -29 -3 -41 6 -17 12 -20 12 -20 0 0 -8 3 -14 6
-13 25 2 32 -5 12 -13 -18 -7 -21 -12 -12 -23 6 -7 9 -16 6 -20 -3 -3 1 -1 7
4 10 9 10 13 -2 21 -12 9 -10 10 7 6 12 -3 21 0 20 5 -1 5 8 14 21 19 12 4 22
5 22 0 0 -15 -80 -72 -92 -65 -7 4 -8 3 -4 -4 10 -17 -41 -47 -57 -33 -10 8
-14 7 -14 -4 0 -8 5 -12 11 -9 6 3 0 -3 -14 -14 -13 -11 -28 -18 -32 -16 -4 3
-8 1 -8 -4 0 -17 -46 -31 -60 -19 -10 10 -11 8 -6 -8 4 -11 4 -16 0 -12 -4 4
-15 0 -24 -8 -9 -8 -25 -16 -36 -18 -10 -1 -25 -7 -33 -11 -10 -6 -12 -5 -7 2
4 7 2 12 -3 12 -6 0 -11 -4 -11 -10 0 -13 -28 -26 -75 -34 -37 -7 -38 -6 -20
7 11 8 28 13 39 11 15 -3 17 -1 8 8 -16 16 -42 19 -39 5 1 -6 -4 -12 -10 -13
-7 -1 -16 -3 -20 -4 -5 -1 -12 -2 -17 -1 -5 1 -4 -4 2 -12 9 -11 6 -13 -18
-13 -16 0 -27 3 -24 8 8 12 -10 10 -24 -4 -6 -6 -22 -13 -34 -15 -37 -5 -59
-40 -57 -92 1 -25 -2 -54 -6 -63 -4 -11 -3 -18 5 -18 6 0 9 4 6 8 -2 4 -1 13
3 20 6 9 11 9 24 -1 14 -10 15 -19 5 -62 -5 -27 -13 -54 -17 -60 -4 -5 -7 -17
-6 -25 0 -17 -45 -57 -60 -52 -5 2 -4 -2 3 -9 13 -15 17 -33 4 -25 -5 3 -9 -1
-9 -9 0 -8 3 -13 5 -10 7 6 42 -25 42 -37 0 -5 -3 -7 -7 -5 -5 3 -7 -20 -6
-51 2 -39 -1 -52 -7 -42 -9 14 -12 12 -9 -6 0 -4 -5 -11 -13 -16 -10 -7 -9 -8
5 -4 11 3 17 0 17 -10 0 -8 -4 -13 -9 -9 -5 3 -13 1 -16 -5 -4 -6 -1 -9 6 -8
6 2 14 -3 17 -11 3 -10 0 -11 -9 -5 -11 6 -12 5 -2 -7 11 -13 8 -20 -12 -39
-14 -13 -25 -19 -25 -14 0 6 -11 10 -24 10 -14 0 -22 -4 -20 -8 3 -5 10 -5 16
-2 7 4 8 -2 3 -17 -7 -24 -7 -24 9 -4 15 19 16 19 9 1 -4 -13 -3 -17 4 -13 6
4 13 2 15 -4 2 -7 9 -5 17 5 12 14 12 16 -3 10 -9 -3 -16 -2 -16 4 0 11 30 25
37 18 3 -2 1 -15 -3 -28 -4 -13 -7 -30 -6 -38 3 -13 2 -13 -7 0 -9 13 -11 13
-11 -2 0 -10 5 -18 10 -18 6 0 10 -5 10 -11 0 -6 -7 -9 -15 -6 -8 4 -17 2 -20
-4 -4 -5 -3 -9 2 -8 21 4 31 -3 36 -21 3 -11 0 -20 -6 -21 -8 0 -8 -2 1 -6 6
-2 12 -16 12 -30 0 -19 -4 -24 -16 -19 -8 3 -12 2 -9 -4 3 -5 -11 -14 -32 -19
-21 -6 -53 -20 -72 -31 -31 -20 -34 -20 -52 -4 -27 25 -114 205 -148 309 -63
190 -75 277 -76 530 0 201 3 244 23 343 49 244 156 495 289 681 81 112 246
288 352 373 122 98 276 196 424 268 160 79 404 164 453 158 18 -2 30 0 28 4
-3 4 2 8 11 8 8 0 20 -11 25 -25 12 -31 15 -31 15 -1 0 13 -3 22 -7 19 -5 -2
-8 1 -8 6 0 6 12 12 28 12 15 1 39 2 54 3 14 0 30 4 34 9 11 11 52 9 59 -4 5
-7 14 -4 26 7 10 9 19 15 19 12 0 -3 15 -2 33 2 45 11 59 11 53 1z m-106 -5
c0 -3 -4 -8 -10 -11 -5 -3 -10 -1 -10 4 0 6 5 11 10 11 6 0 10 -2 10 -4z
m4092 -1521 c21 -46 -21 -168 -112 -325 -26 -45 -25 -66 5 -95 45 -46 75 -35
144 49 125 152 244 229 289 184 39 -39 -28 -162 -170 -315 -32 -34 -48 -61
-48 -78 0 -31 41 -75 70 -75 12 0 63 22 113 49 51 27 107 52 125 56 45 9 82
-15 82 -54 0 -47 -45 -90 -146 -138 -51 -24 -97 -50 -105 -59 -18 -22 -15 -71
7 -95 16 -18 26 -20 64 -15 136 17 145 17 164 4 27 -21 13 -53 -37 -82 -117
-68 -382 -158 -594 -202 -13 -2 -50 -41 -91 -97 -351 -465 -845 -927 -1359
-1273 -69 -47 -128 -82 -131 -80 -5 5 -192 566 -192 576 0 3 48 44 108 92 331
265 680 604 920 896 141 171 242 313 242 338 0 12 -14 64 -31 114 -56 170 -73
316 -45 385 8 19 22 35 31 35 53 0 148 -73 192 -147 14 -25 37 -49 51 -54 52
-20 76 3 198 187 110 166 153 213 214 237 26 10 30 8 42 -18z m-5462 -610 c0
-17 -6 -25 -17 -26 -11 0 -13 -3 -5 -6 6 -2 12 -9 12 -15 0 -6 -7 -5 -16 3
-14 12 -14 14 1 25 10 8 12 14 5 19 -11 7 -4 25 11 25 5 0 9 -11 9 -25z m3858
-362 c22 -50 26 -72 26 -153 1 -103 -10 -135 -59 -180 l-28 -25 7 70 c3 39 6
132 6 208 0 89 4 137 11 137 5 0 22 -26 37 -57z m-335 -1520 c52 -159 107
-332 123 -386 27 -96 28 -99 9 -110 -69 -42 -291 -159 -405 -212 l-135 -64
-23 30 c-31 39 -82 40 -111 3 -12 -15 -21 -33 -21 -40 0 -8 20 -85 45 -171
129 -459 240 -945 319 -1405 l7 -36 -83 -32 c-307 -118 -794 -214 -1333 -264
-198 -19 -652 -42 -660 -34 -3 3 -1 77 5 164 27 403 22 1029 -11 1404 -9 104
-12 117 -35 138 -40 35 -85 28 -108 -17 -10 -19 -12 -47 -6 -106 4 -44 5 -83
3 -87 -2 -5 -55 -8 -116 -8 -105 0 -330 -13 -442 -25 l-51 -6 -17 48 c-58 164
-117 594 -117 850 l0 74 48 20 c72 31 245 78 365 98 l109 19 72 -33 c140 -64
355 -123 515 -141 69 -8 58 4 131 -126 51 -90 161 -198 240 -236 213 -101 456
-37 605 160 47 61 127 216 140 270 6 22 19 30 98 58 267 92 560 279 703 448
19 23 37 42 39 42 3 0 47 -129 98 -287z m-1138 -352 c-47 -88 -132 -176 -204
-210 -78 -35 -195 -37 -261 -2 -68 36 -121 82 -167 148 l-42 59 207 13 c116 6
264 22 337 35 185 33 172 37 130 -43z m-2171 -113 c12 -179 36 -399 57 -522
11 -65 18 -120 17 -121 -2 -1 -50 -13 -108 -25 -293 -62 -585 -191 -804 -354
-142 -106 -144 -109 -172 -226 -45 -188 -119 -304 -211 -329 -45 -13 -133 -14
-151 -3 -9 6 -1 16 25 33 32 20 39 31 41 62 6 77 -60 101 -140 51 -51 -32
-159 -84 -175 -84 -22 0 -41 30 -53 82 -11 52 -42 98 -66 98 -6 0 -22 8 -35
19 -18 14 -23 27 -21 58 2 35 -2 44 -39 76 -38 35 -40 40 -34 76 5 31 2 43
-18 67 -34 40 -49 92 -38 129 16 58 53 118 101 166 81 81 178 119 360 140 l95
12 140 87 c321 200 697 398 1000 525 88 36 169 70 180 75 40 17 43 13 49 -92z
m3524 -2915 c85 -133 116 -243 92 -330 -19 -69 -120 -168 -220 -216 -118 -56
-359 -117 -466 -117 -30 0 -34 4 -43 38 -9 32 -20 104 -35 219 -5 32 -2 34 87
84 97 54 367 235 477 318 36 27 68 50 71 50 4 1 21 -20 37 -46z m-2299 -464
c28 -66 28 -66 14 -145 -18 -99 -20 -315 -4 -373 16 -56 6 -131 -23 -173 -18
-27 -29 -34 -64 -36 -113 -8 -181 90 -202 292 -26 248 59 464 195 497 49 12
55 7 84 -62z m1516 -186 c5 -21 2 -23 -34 -23 l-40 0 -11 58 c-7 31 -14 60
-16 64 -3 4 12 19 33 33 l38 25 12 -67 c7 -38 15 -78 18 -90z m-227 -15 c20
-79 34 -223 27 -285 -10 -98 -38 -142 -114 -180 -133 -65 -322 -80 -497 -39
-85 20 -84 17 -84 196 l0 118 53 12 c102 24 383 122 487 170 58 26 108 49 111
49 4 1 11 -18 17 -41z m-1089 -154 c64 -95 74 -100 177 -84 47 7 87 10 90 7 3
-2 3 -48 2 -101 l-3 -96 -55 26 c-30 14 -101 50 -157 81 -86 48 -102 61 -107
86 -9 42 -7 147 2 147 4 0 27 -30 51 -66z"/>
<path d="M3890 12880 c0 -6 7 -10 15 -10 8 0 15 2 15 4 0 2 -7 6 -15 10 -8 3
-15 1 -15 -4z"/>
<path d="M4160 12880 c0 -5 5 -10 10 -10 6 0 10 5 10 10 0 6 -4 10 -10 10 -5
0 -10 -4 -10 -10z"/>
<path d="M4238 12883 c7 -3 16 -2 19 1 4 3 -2 6 -13 5 -11 0 -14 -3 -6 -6z"/>
<path d="M3660 12820 c13 -24 17 -25 17 -5 0 8 -6 16 -14 19 -11 4 -11 1 -3
-14z"/>
<path d="M3566 12811 c-17 -19 -17 -19 0 -17 9 2 18 10 20 19 3 21 1 21 -20
-2z"/>
<path d="M4454 12822 c3 -6 0 -13 -6 -16 -7 -4 -3 -4 9 -2 13 2 26 0 29 -5 6
-11 24 -2 24 12 0 6 -6 9 -12 6 -7 -2 -21 0 -32 5 -12 7 -16 7 -12 0z"/>
<path d="M3496 12803 c-6 -14 -5 -15 5 -6 7 7 10 15 7 18 -3 3 -9 -2 -12 -12z"/>
<path d="M4550 12812 c0 -6 -8 -9 -17 -6 -15 5 -16 4 -3 -5 16 -11 40 3 27 16
-4 3 -7 1 -7 -5z"/>
<path d="M3385 12770 c-3 -5 -3 -10 1 -10 4 0 -3 -11 -15 -24 -21 -23 -12 -31
15 -13 6 3 14 3 18 0 15 -15 32 -9 32 11 0 16 -6 22 -20 22 -12 -1 -20 5 -18
12 3 15 -4 16 -13 2z m39 -42 c-4 -6 -10 -6 -17 1 -7 7 -15 7 -26 -2 -14 -10
-14 -10 -3 4 13 18 57 14 46 -3z"/>
<path d="M4904 12756 c-3 -9 -10 -14 -14 -11 -5 3 -6 -4 -3 -15 5 -18 25 -30
22 -12 -4 22 2 42 11 37 6 -4 8 -10 6 -14 -8 -12 11 -34 23 -26 8 5 9 11 2 19
-6 7 -7 17 -3 22 4 5 3 6 -2 2 -5 -4 -15 -3 -22 3 -10 9 -15 7 -20 -5z"/>
<path d="M3333 12735 c0 -8 4 -12 9 -9 5 3 6 10 3 15 -9 13 -12 11 -12 -6z"/>
<path d="M5004 12731 c3 -5 16 -11 28 -14 22 -6 22 -5 4 8 -22 17 -40 20 -32
6z"/>
<path d="M3252 12697 c-7 -8 -6 -18 4 -31 7 -10 11 -23 7 -29 -3 -6 -2 -7 4
-4 8 5 10 39 3 57 -1 3 -2 8 -1 13 2 11 -5 9 -17 -6z"/>
<path d="M5209 12698 c-7 -25 -5 -36 7 -31 9 3 14 -2 14 -15 0 -14 6 -20 19
-19 11 0 17 5 15 9 -3 5 -10 5 -16 2 -7 -5 -9 0 -6 14 3 12 3 21 -1 20 -19 -2
-31 3 -26 12 3 6 4 10 1 10 -3 0 -6 -1 -7 -2z"/>
<path d="M3215 12682 c-14 -10 -17 -32 -4 -32 5 0 8 -4 5 -9 -4 -5 2 -8 11 -7
20 3 28 21 14 31 -7 4 -8 0 -4 -11 4 -12 3 -15 -6 -10 -7 5 -11 17 -8 27 6 21
6 21 -8 11z"/>
<path d="M5260 12680 c0 -5 5 -10 11 -10 5 0 7 5 4 10 -3 6 -8 10 -11 10 -2 0
-4 -4 -4 -10z"/>
<path d="M3156 12642 c-3 -5 1 -9 9 -9 8 0 12 4 9 9 -3 4 -7 8 -9 8 -2 0 -6
-4 -9 -8z"/>
<path d="M5364 12625 c-4 -9 -4 -19 0 -22 3 -4 6 2 7 13 0 18 1 18 9 -1 7 -16
9 -17 9 -3 1 23 -18 33 -25 13z"/>
<path d="M5400 12612 c0 -12 19 -26 26 -19 2 2 -2 10 -11 17 -9 8 -15 8 -15 2z"/>
<path d="M3084 12588 c-4 -7 -3 -8 4 -4 19 11 14 -5 -5 -21 -16 -13 -16 -13 3
-4 12 6 23 8 26 6 3 -3 5 2 5 10 0 18 -24 28 -33 13z"/>
<path d="M5425 12579 c-19 -9 -19 -9 2 -5 12 2 24 -1 26 -8 2 -6 7 -8 11 -5
13 12 -19 27 -39 18z"/>
<path d="M5367 12566 c-4 -10 -1 -13 8 -9 8 3 12 9 9 14 -7 12 -11 11 -17 -5z"/>
<path d="M5418 12553 c7 -3 16 -2 19 1 4 3 -2 6 -13 5 -11 0 -14 -3 -6 -6z"/>
<path d="M2981 12526 c-8 -10 -9 -16 -1 -21 5 -3 10 -5 11 -3 4 18 7 38 4 38
-1 0 -8 -6 -14 -14z"/>
<path d="M5526 12502 c-3 -6 1 -15 8 -21 8 -7 17 -8 20 -3 3 6 -1 15 -8 21 -8
7 -17 8 -20 3z"/>
<path d="M2913 12479 c-6 -6 -9 -18 -5 -27 4 -12 1 -14 -13 -8 -11 4 -16 4
-12 0 4 -4 -1 -17 -10 -28 -14 -16 -9 -14 17 5 19 15 36 36 36 48 1 24 1 24
-13 10z"/>
<path d="M4494 12454 c13 -9 14 -13 4 -17 -11 -4 -11 -6 0 -6 7 -1 11 -5 8
-10 -7 -11 20 -8 31 3 4 4 3 6 -3 4 -7 -1 -11 2 -10 7 0 6 6 11 11 11 6 1 14
2 20 3 5 0 4 6 -3 13 -8 8 -15 8 -27 -2 -8 -7 -15 -8 -15 -3 0 5 -7 10 -16 10
-15 0 -15 -1 0 -13z"/>
<path d="M4633 12449 c1 -10 7 -19 13 -19 7 0 22 -13 34 -30 12 -16 28 -30 36
-30 16 0 19 16 4 25 -6 4 -7 12 -3 18 5 9 2 8 -8 0 -13 -11 -21 -7 -45 19 -16
17 -24 28 -17 24 6 -3 14 -3 17 2 2 4 -4 8 -14 9 -13 1 -18 -5 -17 -18z m82
-59 c3 -5 1 -10 -4 -10 -6 0 -11 5 -11 10 0 6 2 10 4 10 3 0 8 -4 11 -10z"/>
<path d="M4588 12453 c6 -2 9 -10 6 -15 -4 -7 -2 -8 5 -4 13 9 5 26 -12 25 -9
0 -8 -2 1 -6z"/>
<path d="M4480 12406 c0 -2 8 -10 18 -17 15 -13 16 -12 3 4 -13 16 -21 21 -21
13z"/>
<path d="M2832 12388 c2 -7 -2 -12 -8 -11 -6 1 -11 -5 -11 -13 0 -19 14 -18
26 4 6 9 11 12 11 5 0 -7 7 -10 15 -6 15 5 12 18 -3 18 -4 0 -13 4 -20 8 -8 6
-12 4 -10 -5z"/>
<path d="M4786 12368 c3 -5 10 -6 15 -3 13 9 11 12 -6 12 -8 0 -12 -4 -9 -9z"/>
<path d="M4819 12363 c-13 -16 -12 -17 4 -4 16 13 21 21 13 21 -2 0 -10 -8
-17 -17z"/>
<path d="M4942 12363 c-6 -2 -9 -10 -5 -16 4 -7 0 -8 -11 -4 -9 4 -15 3 -11
-2 3 -5 2 -11 -2 -14 -5 -2 -2 -2 5 0 8 1 19 3 26 3 6 0 12 9 12 20 0 11 0 20
-1 19 0 0 -6 -3 -13 -6z"/>
<path d="M2834 12351 c-5 -5 -16 -11 -24 -13 -8 -2 -21 -9 -28 -16 -8 -7 -18
-10 -23 -6 -5 3 -8 0 -7 -8 2 -7 -2 -12 -8 -11 -6 1 -11 -5 -11 -13 0 -20 12
-17 31 9 10 14 14 16 10 4 -5 -13 -2 -16 9 -11 9 3 13 12 10 21 -4 10 -2 14 7
11 13 -4 56 30 48 38 -3 2 -9 0 -14 -5z"/>
<path d="M2860 12345 c0 -8 -7 -15 -15 -15 -8 0 -15 -4 -15 -8 0 -13 24 -11
35 3 14 16 17 35 5 35 -5 0 -10 -7 -10 -15z"/>
<path d="M5847 12284 c-3 -4 -2 -14 3 -24 5 -10 6 -21 2 -26 -4 -5 0 -3 9 4 9
6 19 8 24 4 4 -4 0 5 -10 21 -19 30 -19 30 -28 21z"/>
<path d="M2737 12260 c-18 -11 -24 -19 -16 -22 7 -2 21 4 32 15 25 25 18 28
-16 7z"/>
<path d="M2780 12265 c0 -8 -7 -15 -15 -15 -8 0 -15 -4 -15 -8 0 -13 24 -11
35 3 14 16 17 35 5 35 -5 0 -10 -7 -10 -15z"/>
<path d="M2680 12242 c0 -7 -4 -10 -10 -7 -5 3 -10 2 -10 -4 0 -5 6 -11 13
-14 9 -3 9 -8 -2 -21 -12 -14 -12 -16 2 -11 18 8 32 -11 16 -21 -8 -5 -9 -3
-4 7 8 12 6 12 -8 0 -9 -7 -17 -14 -17 -15 0 -7 50 0 51 6 4 25 2 36 -13 63
-10 17 -17 24 -18 17z m25 -42 c3 -5 1 -10 -4 -10 -6 0 -11 5 -11 10 0 6 2 10
4 10 3 0 8 -4 11 -10z"/>
<path d="M5254 12206 c7 -12 21 -22 30 -22 14 -2 14 -1 1 3 -14 4 -14 7 -3 21
12 16 11 16 -6 2 -18 -13 -19 -13 -14 1 4 10 1 16 -8 16 -12 0 -12 -3 0 -21z"/>
<path d="M5310 12161 c0 -6 4 -13 10 -16 6 -3 7 1 4 9 -7 18 -14 21 -14 7z"/>
<path d="M5950 12150 c-9 -6 -10 -10 -3 -10 6 0 15 5 18 10 8 12 4 12 -15 0z"/>
<path d="M2617 12136 c-3 -8 2 -20 11 -27 14 -11 15 -11 5 0 -6 7 -9 20 -6 27
3 8 3 14 0 14 -3 0 -7 -6 -10 -14z"/>
<path d="M4400 12135 c0 -8 10 -19 23 -25 21 -10 21 -10 3 4 -10 8 -15 19 -11
25 3 6 1 11 -4 11 -6 0 -11 -7 -11 -15z"/>
<path d="M5351 12137 c2 -2 11 -8 20 -15 12 -9 16 -9 16 1 0 7 -9 14 -20 14
-11 1 -18 1 -16 0z"/>
<path d="M5955 12119 c-3 -4 2 -6 10 -5 21 3 28 13 10 13 -9 0 -18 -4 -20 -8z"/>
<path d="M2586 12088 c3 -5 10 -6 15 -3 13 9 11 12 -6 12 -8 0 -12 -4 -9 -9z"/>
<path d="M5925 12091 c-3 -5 -2 -12 3 -15 5 -3 9 1 9 9 0 17 -3 19 -12 6z"/>
<path d="M2555 12080 c-3 -5 -1 -10 4 -10 6 0 11 5 11 10 0 6 -2 10 -4 10 -3
0 -8 -4 -11 -10z"/>
<path d="M6000 12070 c0 -5 5 -10 11 -10 8 0 8 -4 2 -12 -18 -22 -11 -44 13
-44 12 0 20 4 18 8 -3 5 -9 6 -14 3 -13 -8 -24 15 -12 27 6 6 8 17 5 24 -6 16
-23 19 -23 4z"/>
<path d="M2529 12068 c-9 -32 -6 -46 10 -51 13 -3 18 0 17 11 -2 9 -8 18 -14
20 -7 2 -10 8 -6 13 3 5 3 9 0 9 -3 0 -6 -1 -7 -2z"/>
<path d="M5506 12044 c-5 -14 -4 -15 9 -4 17 14 19 20 6 20 -5 0 -12 -7 -15
-16z"/>
<path d="M2496 12002 c-3 -5 1 -9 9 -9 8 0 12 4 9 9 -3 4 -7 8 -9 8 -2 0 -6
-4 -9 -8z"/>
<path d="M5552 12001 c2 -8 20 -26 39 -40 18 -14 28 -19 22 -10 -7 9 -9 20 -5
24 4 5 1 5 -5 1 -9 -5 -13 0 -14 16 0 21 -1 21 -8 3 -8 -19 -8 -19 -20 0 -7
11 -11 14 -9 6z"/>
<path d="M3535 11980 c-3 -6 1 -7 9 -4 18 7 21 14 7 14 -6 0 -13 -4 -16 -10z"/>
<path d="M5620 11969 c0 -5 4 -8 9 -5 12 8 33 -19 23 -29 -4 -5 -1 -5 6 -1 11
6 10 12 -4 27 -19 21 -34 25 -34 8z"/>
<path d="M3524 11943 c4 -26 22 -34 22 -10 0 13 -5 24 -12 24 -6 0 -11 -6 -10
-14z"/>
<path d="M2447 11906 c8 -14 6 -24 -10 -42 -11 -13 -25 -21 -30 -17 -6 3 -7 1
-3 -6 8 -13 26 -3 54 29 12 13 13 13 8 -3 -3 -11 -2 -16 4 -12 15 10 12 24
-11 48 -18 18 -20 18 -12 3z"/>
<path d="M4360 11901 c-8 -6 -19 -7 -25 -4 -5 4 -6 2 -2 -2 13 -15 35 -14 41
1 6 16 6 17 -14 5z"/>
<path d="M6095 11901 c-3 -5 -2 -12 3 -15 5 -3 9 1 9 9 0 17 -3 19 -12 6z"/>
<path d="M5710 11897 c0 -2 6 -10 14 -16 11 -9 16 -9 22 1 4 7 4 10 -1 6 -4
-4 -14 -3 -22 3 -7 6 -13 9 -13 6z"/>
<path d="M3746 11873 c-6 -14 -5 -15 5 -6 7 7 10 15 7 18 -3 3 -9 -2 -12 -12z"/>
<path d="M4357 11853 c3 -7 6 -13 8 -13 2 0 5 6 8 13 3 8 -1 14 -8 14 -7 0
-11 -6 -8 -14z"/>
<path d="M3741 11828 c5 -10 11 -18 12 -18 2 0 3 8 3 18 0 10 -6 19 -13 19 -8
0 -9 -6 -2 -19z"/>
<path d="M3445 11821 c-3 -5 -2 -12 3 -15 5 -3 9 1 9 9 0 17 -3 19 -12 6z"/>
<path d="M5790 11828 c0 -2 9 -11 20 -21 11 -9 20 -13 20 -7 0 5 -9 14 -20 20
-11 6 -20 9 -20 8z"/>
<path d="M2376 11783 c-4 -9 -2 -20 4 -25 5 -4 8 -5 5 -2 -2 4 0 15 6 25 6 11
6 19 0 19 -5 0 -12 -8 -15 -17z"/>
<path d="M3735 11790 c-3 -5 -1 -10 4 -10 6 0 11 5 11 10 0 6 -2 10 -4 10 -3
0 -8 -4 -11 -10z"/>
<path d="M4325 11791 c-3 -5 -2 -12 3 -15 5 -3 9 1 9 9 0 17 -3 19 -12 6z"/>
<path d="M3396 11738 c3 -5 10 -6 15 -3 13 9 11 12 -6 12 -8 0 -12 -4 -9 -9z"/>
<path d="M4285 11739 c5 -12 1 -16 -16 -15 -12 0 -23 -5 -25 -12 -1 -7 0 -8 3
-2 3 8 9 8 18 0 18 -15 43 16 26 33 -10 9 -11 8 -6 -4z"/>
<path d="M2365 11730 c-16 -7 -17 -9 -3 -9 9 -1 20 4 23 9 7 11 7 11 -20 0z"/>
<path d="M3372 11714 c-7 -8 -8 -14 -3 -14 10 0 25 19 20 25 -2 1 -10 -3 -17
-11z"/>
<path d="M6194 11722 c3 -5 1 -12 -6 -14 -6 -2 -12 -11 -14 -20 -3 -23 23 -11
29 13 3 10 0 22 -5 26 -6 3 -8 1 -4 -5z"/>
<path d="M2343 11690 c-8 -12 -9 -21 -3 -25 6 -4 8 -11 4 -16 -3 -5 -10 -6
-16 -3 -7 4 -8 2 -4 -5 6 -9 11 -9 22 0 11 9 11 15 3 25 -10 13 -6 18 13 15 4
0 5 6 2 14 -8 19 -7 19 -21 -5z"/>
<path d="M2375 11700 c3 -5 11 -10 16 -10 6 0 7 5 4 10 -3 6 -11 10 -16 10 -6
0 -7 -4 -4 -10z"/>
<path d="M2375 11660 c-3 -6 -3 -19 0 -30 6 -18 3 -20 -17 -15 -16 4 -29 1
-37 -9 -8 -10 -9 -16 -3 -16 6 0 12 6 14 12 4 10 10 10 30 1 33 -15 40 -8 25
24 -9 19 -8 26 4 34 9 5 10 9 2 9 -6 0 -15 -5 -18 -10z"/>
<path d="M5904 11641 c0 -16 4 -27 8 -25 4 2 5 14 3 26 -7 32 -13 32 -11 -1z"/>
<path d="M4990 11584 c-96 -80 -109 -97 -93 -123 22 -36 57 -25 139 44 85 72
104 92 104 111 0 17 -28 44 -45 44 -8 0 -55 -34 -105 -76z"/>
<path d="M3340 11630 c-9 -6 -10 -10 -3 -10 6 0 15 5 18 10 8 12 4 12 -15 0z"/>
<path d="M4166 11615 c4 -8 8 -15 10 -15 2 0 4 7 4 15 0 8 -4 15 -10 15 -5 0
-7 -7 -4 -15z"/>
<path d="M4190 11621 c0 -5 5 -13 10 -16 6 -3 10 -2 10 4 0 5 -4 13 -10 16 -5
3 -10 2 -10 -4z"/>
<path d="M3280 11613 c0 -15 19 -37 26 -31 3 4 -1 14 -10 23 -9 9 -16 13 -16
8z"/>
<path d="M4122 11565 c3 -27 10 -25 15 5 2 11 -2 20 -7 20 -5 0 -9 -11 -8 -25z"/>
<path d="M5984 11575 c3 -21 16 -31 16 -12 0 9 -4 18 -9 21 -5 4 -8 -1 -7 -9z"/>
<path d="M3226 11561 c-13 -14 -14 -21 -5 -27 7 -4 10 -3 6 3 -8 12 17 36 26
26 4 -3 7 -1 7 5 0 18 -15 14 -34 -7z"/>
<path d="M2295 11559 c-4 -6 -5 -12 -2 -15 2 -3 7 2 10 11 7 17 1 20 -8 4z"/>
<path d="M3530 11539 c0 -5 5 -7 10 -4 6 3 10 8 10 11 0 2 -4 4 -10 4 -5 0
-10 -5 -10 -11z"/>
<path d="M4020 11506 c0 -2 7 -7 16 -10 8 -3 12 -2 9 4 -6 10 -25 14 -25 6z"/>
<path d="M6255 11500 c3 -5 8 -10 11 -10 2 0 4 5 4 10 0 6 -5 10 -11 10 -5 0
-7 -4 -4 -10z"/>
<path d="M2286 11461 c-4 -5 -1 -13 5 -17 8 -4 9 -3 5 4 -4 7 -2 12 3 12 6 0
11 -9 11 -21 0 -11 -4 -17 -10 -14 -5 3 -10 0 -10 -7 0 -10 -2 -10 -9 1 -6 9
-11 10 -15 2 -4 -6 -3 -11 2 -11 5 0 15 -11 22 -25 7 -13 17 -22 22 -19 5 3 1
12 -9 19 -17 13 -17 14 1 28 10 7 17 22 15 32 -5 21 -24 31 -33 16z"/>
<path d="M3146 11437 c3 -10 9 -15 12 -12 3 3 0 11 -7 18 -10 9 -11 8 -5 -6z"/>
<path d="M3450 11418 c-13 -8 -12 -9 2 -5 9 3 19 1 21 -6 2 -7 7 -9 11 -6 13
12 -19 28 -34 17z"/>
<path d="M3555 11420 c-3 -6 1 -7 9 -4 18 7 21 14 7 14 -6 0 -13 -4 -16 -10z"/>
<path d="M3628 11412 c-9 -10 -7 -17 5 -29 15 -15 16 -15 11 11 -2 15 -1 25 4
22 4 -2 14 -1 22 4 11 7 9 9 -8 7 -13 -1 -28 -7 -34 -15z"/>
<path d="M3694 11421 c6 -10 -18 -34 -26 -26 -2 3 -5 -2 -5 -10 0 -12 6 -10
26 7 14 13 27 24 29 24 2 1 -4 4 -13 8 -9 3 -14 2 -11 -3z"/>
<path d="M3814 11408 c0 -10 1 -18 3 -18 1 0 7 8 12 18 7 13 6 19 -2 19 -7 0
-13 -9 -13 -19z"/>
<path d="M3953 11415 c0 -8 4 -15 9 -15 4 0 8 4 8 9 0 6 -4 12 -8 15 -5 3 -9
-1 -9 -9z"/>
<path d="M3590 11410 c0 -5 5 -10 11 -10 5 0 7 5 4 10 -3 6 -8 10 -11 10 -2 0
-4 -4 -4 -10z"/>
<path d="M3738 11413 c7 -3 16 -2 19 1 4 3 -2 6 -13 5 -11 0 -14 -3 -6 -6z"/>
<path d="M2259 11398 c-7 -25 -7 -48 0 -48 15 0 23 18 11 25 -6 4 -8 11 -5 16
4 5 4 9 1 9 -3 0 -6 -1 -7 -2z"/>
<path d="M3699 11383 c-11 -15 -11 -16 1 -5 16 14 34 16 26 4 -3 -5 1 -9 9 -9
11 0 12 4 4 14 -15 17 -24 16 -40 -4z"/>
<path d="M3760 11390 c8 -5 11 -10 5 -10 -5 0 -4 -4 4 -9 8 -5 21 -7 28 -4 19
7 1 26 -29 30 -18 2 -20 1 -8 -7z"/>
<path d="M3938 11388 c10 -13 10 -17 0 -21 -7 -3 -4 -5 8 -4 11 1 21 7 21 14
0 7 -3 11 -5 8 -3 -3 -12 1 -21 8 -14 10 -14 10 -3 -5z"/>
<path d="M6036 11392 c-2 -4 0 -14 6 -22 8 -12 9 -11 4 4 -5 14 -2 17 9 12 9
-3 13 -2 10 4 -7 12 -22 13 -29 2z"/>
<path d="M6255 11364 c17 -17 29 -18 19 -2 -5 8 -2 9 10 5 9 -4 15 -3 12 2 -3
5 -17 9 -30 9 -21 0 -23 -3 -11 -14z"/>
<path d="M3858 11363 c12 -2 32 -2 45 0 12 2 2 4 -23 4 -25 0 -35 -2 -22 -4z"/>
<path d="M2985 11340 c-3 -5 1 -10 10 -10 9 0 13 5 10 10 -3 6 -8 10 -10 10
-2 0 -7 -4 -10 -10z"/>
<path d="M2804 11248 c-4 -7 -3 -8 4 -4 11 7 17 -6 13 -27 -1 -5 3 -6 9 -2 7
4 7 12 0 26 -12 22 -16 23 -26 7z"/>
<path d="M6114 11228 c-3 -5 -3 -12 0 -15 3 -4 6 0 6 8 0 11 2 11 10 -1 7 -11
10 -11 10 -2 0 8 5 10 13 6 6 -4 8 -3 4 1 -11 13 -36 15 -43 3z"/>
<path d="M2220 11196 c0 -8 4 -17 9 -20 5 -4 7 3 4 14 -6 23 -13 26 -13 6z"/>
<path d="M2530 11182 c0 -7 6 -12 13 -12 8 0 7 -4 -3 -11 -12 -9 -12 -10 4 -5
10 4 26 1 34 -6 13 -11 15 -10 9 5 -6 16 4 22 28 17 6 -1 7 2 2 6 -10 11 -47
13 -41 2 8 -13 -21 -9 -34 4 -9 9 -12 9 -12 0z"/>
<path d="M2500 11159 c0 -5 -4 -7 -10 -4 -6 4 -7 -1 -3 -11 4 -12 8 -14 11 -6
3 10 7 10 20 0 13 -12 14 -10 3 10 -13 24 -21 28 -21 11z"/>
<path d="M2221 11084 c0 -11 3 -14 6 -6 3 7 2 16 -1 19 -3 4 -6 -2 -5 -13z"/>
<path d="M2408 11075 c2 -12 10 -22 18 -22 8 0 12 3 9 5 -3 3 1 12 8 21 11 14
10 15 -7 1 -18 -13 -19 -13 -14 1 4 9 1 16 -6 16 -8 0 -11 -9 -8 -22z"/>
<path d="M2225 11049 c-4 -6 -5 -12 -2 -15 2 -3 7 2 10 11 7 17 1 20 -8 4z"/>
<path d="M6217 11035 c-4 -8 -2 -17 3 -20 6 -4 10 3 10 14 0 25 -6 27 -13 6z"/>
<path d="M6247 11015 c3 -8 9 -12 14 -9 12 7 11 11 -5 17 -10 4 -13 1 -9 -8z"/>
<path d="M6213 10978 c-1 -10 5 -18 13 -18 9 0 12 -5 8 -12 -4 -7 -3 -8 4 -4
19 11 15 39 -4 32 -13 -5 -14 -4 -6 7 9 10 9 14 -1 14 -7 0 -14 -9 -14 -19z"/>
<path d="M6285 10979 c-11 -17 1 -21 15 -4 8 9 8 15 2 15 -6 0 -14 -5 -17 -11z"/>
<path d="M2224 10916 c0 -19 3 -32 6 -30 8 8 8 64 1 64 -4 0 -7 -15 -7 -34z"/>
<path d="M2400 10864 c0 -5 4 -16 9 -23 6 -9 6 -22 0 -33 -6 -12 -6 -18 1 -18
5 0 10 7 10 16 0 8 4 13 9 9 5 -3 13 0 17 6 4 7 3 9 -2 6 -6 -3 -16 4 -24 16
-12 20 -12 21 3 9 10 -9 17 -10 22 -2 3 5 2 10 -4 10 -5 0 -16 3 -25 6 -9 3
-16 2 -16 -2z"/>
<path d="M6259 10865 c-1 -3 -3 -9 -4 -15 -1 -5 -3 -11 -5 -12 -9 -12 -5 -35
6 -35 7 0 11 4 8 8 -2 4 0 11 6 14 8 5 7 12 -2 23 -11 13 -10 15 5 9 11 -4 16
-3 12 3 -6 10 -24 14 -26 5z"/>
<path d="M2265 10692 c-5 -13 19 -41 35 -42 8 0 6 -83 -2 -96 -4 -6 -1 -11 5
-11 9 0 13 21 13 68 0 55 -2 66 -13 57 -16 -13 -17 -4 -3 22 8 16 7 19 -10 17
-11 -1 -22 -8 -25 -15z"/>
<path d="M5165 10688 c-86 -47 -126 -167 -95 -280 22 -78 110 -138 181 -124
84 17 144 107 137 206 -9 128 -140 244 -223 198z"/>
<path d="M2264 10636 c0 -12 5 -23 12 -23 6 0 9 9 6 19 -7 27 -18 30 -18 4z"/>
<path d="M2410 10651 c0 -6 4 -12 8 -15 5 -3 9 1 9 9 0 8 -4 15 -9 15 -4 0 -8
-4 -8 -9z"/>
<path d="M2403 10615 c0 -8 4 -12 9 -9 5 3 6 10 3 15 -9 13 -12 11 -12 -6z"/>
<path d="M2276 10587 c3 -10 9 -15 12 -12 3 3 0 11 -7 18 -10 9 -11 8 -5 -6z"/>
<path d="M3497 10522 c-10 -10 -17 -33 -17 -50 0 -28 10 -40 75 -92 42 -32 75
-63 74 -67 -1 -4 -22 -14 -48 -21 -81 -23 -99 -33 -112 -63 -10 -26 -9 -34 8
-57 12 -17 31 -28 49 -30 42 -4 306 74 322 95 6 9 12 31 12 49 0 30 -11 42
-141 143 -150 118 -186 133 -222 93z"/>
<path d="M2290 10526 c0 -2 8 -10 18 -17 15 -13 16 -12 3 4 -13 16 -21 21 -21
13z"/>
<path d="M4503 10445 c-25 -18 -47 -77 -38 -104 7 -23 37 -35 64 -26 18 5 51
70 51 100 0 12 -36 45 -50 45 -3 0 -15 -7 -27 -15z"/>
<path d="M2318 10443 c6 -2 9 -10 6 -15 -4 -7 -2 -8 5 -4 13 9 5 26 -12 25 -9
0 -8 -2 1 -6z"/>
<path d="M2363 10365 c0 -8 4 -12 9 -9 5 3 6 10 3 15 -9 13 -12 11 -12 -6z"/>
<path d="M2372 10320 c7 -11 16 -20 20 -20 15 0 8 15 -12 28 -19 12 -20 11 -8
-8z"/>
<path d="M2385 10281 c-3 -5 -2 -12 3 -15 5 -3 9 1 9 9 0 17 -3 19 -12 6z"/>
<path d="M5025 9784 c-150 -41 -590 -84 -920 -90 -296 -5 -290 -4 -279 -84 21
-154 88 -323 163 -414 114 -135 256 -196 461 -196 345 0 547 157 634 491 13
52 27 120 31 151 4 32 13 63 21 69 19 15 18 54 -2 73 -18 19 -41 19 -109 0z
m-20 -156 c-4 -24 -18 -80 -31 -126 -79 -273 -237 -394 -519 -396 -192 -1
-318 61 -410 200 -35 53 -85 174 -99 240 l-7 31 203 7 c286 10 650 44 808 75
25 5 49 9 53 10 5 1 6 -18 2 -41z"/>
<path d="M28378 12429 c-217 -23 -474 -83 -656 -154 -477 -187 -818 -493
-1040 -935 -80 -158 -160 -377 -188 -513 -25 -119 -30 -442 -10 -585 l17 -120
-31 -55 c-60 -107 -77 -280 -39 -403 17 -56 31 -77 77 -124 51 -50 90 -72 168
-95 10 -3 59 -183 51 -191 -2 -2 -183 136 -403 307 l-399 310 -12 86 c-32 222
-110 396 -196 436 -71 34 -149 16 -205 -48 -30 -33 -72 -110 -86 -157 -4 -15
-20 -8 -101 43 -102 64 -147 84 -217 94 -92 14 -186 -39 -210 -116 -11 -38 -8
-67 17 -145 6 -19 2 -22 -32 -28 -98 -18 -163 -90 -163 -181 0 -61 20 -105 74
-163 l45 -48 -38 -37 c-94 -91 -67 -262 51 -323 26 -14 27 -17 22 -72 -10
-104 49 -179 160 -202 57 -12 259 0 368 21 l57 11 88 -63 c209 -150 1024 -749
1045 -768 4 -3 -15 -44 -42 -91 -51 -87 -60 -124 -37 -152 6 -8 192 -109 412
-223 220 -115 402 -210 404 -212 7 -5 -13 -97 -69 -328 -111 -453 -242 -850
-350 -1064 -52 -104 -43 -125 80 -181 47 -21 85 -42 85 -48 0 -17 -265 -321
-419 -480 l-149 -153 6 -44 c6 -38 3 -48 -29 -89 -45 -59 -107 -176 -130 -246
-12 -37 -18 -85 -18 -145 0 -119 25 -184 104 -268 72 -77 147 -123 253 -156
76 -23 97 -25 278 -26 l197 0 4 -60 c14 -170 169 -323 388 -382 101 -28 389
-24 530 6 100 21 265 74 375 119 28 12 120 41 205 66 85 24 162 47 171 51 13
5 25 -11 55 -70 50 -99 128 -186 201 -221 103 -51 223 -33 295 43 38 40 85
145 103 233 22 101 22 301 0 405 -44 213 -154 366 -305 427 -46 19 -75 22
-170 22 l-115 0 66 131 c91 180 141 334 174 537 5 33 9 37 44 43 73 12 76 21
107 355 12 126 18 310 20 660 l4 485 172 47 c263 72 701 200 719 209 38 19 38
59 3 174 -18 61 -34 113 -34 117 0 7 108 65 752 407 l417 221 93 -36 c126 -49
192 -69 331 -99 132 -28 222 -32 270 -11 68 29 126 123 114 184 -5 25 0 30 56
57 115 56 155 174 94 278 -15 25 -34 50 -43 55 -12 7 -3 16 40 45 59 39 100
98 111 157 14 78 -58 174 -150 200 -25 7 -45 14 -45 15 0 2 11 27 25 57 27 58
31 92 14 135 -28 74 -99 112 -209 113 -41 0 -91 -4 -109 -10 -19 -5 -36 -8
-38 -6 -2 2 4 45 13 97 25 146 30 519 10 699 -98 851 -511 1434 -1105 1557
-50 10 -92 27 -133 53 -33 22 -83 47 -111 57 -69 24 -206 24 -262 0 -38 -17
-40 -17 -70 5 -331 250 -798 434 -1248 493 -127 16 -481 19 -619 4z m602 -153
c326 -44 698 -168 952 -319 379 -226 633 -510 781 -872 96 -233 141 -460 141
-710 0 -146 -4 -188 -27 -297 -23 -107 -95 -339 -110 -355 -3 -2 -29 9 -58 25
-30 17 -70 33 -89 37 -69 13 -72 15 -67 44 7 32 -7 250 -24 378 l-12 92 -56
11 c-31 7 -67 14 -80 17 -23 6 -24 5 -17 -38 27 -163 37 -285 37 -435 0 -205
-3 -199 110 -206 84 -5 128 -24 163 -71 17 -24 21 -43 21 -110 0 -70 -4 -91
-28 -139 -47 -96 -107 -123 -262 -120 -55 1 -105 -2 -112 -6 -7 -4 -32 -53
-57 -107 -47 -108 -95 -196 -147 -272 -30 -44 -149 -193 -154 -193 -1 0 -16 5
-32 10 -26 10 -42 5 -124 -30 -115 -51 -398 -197 -619 -320 l-165 -92 -100
-10 c-200 -19 -544 10 -785 68 -639 152 -1044 520 -1195 1085 -77 290 -84 651
-19 929 131 558 427 993 846 1242 68 40 282 138 304 138 6 0 21 -26 34 -57 91
-227 267 -489 408 -610 63 -54 165 -125 219 -152 86 -43 147 -19 141 55 -3 42
-9 47 -130 114 -90 50 -249 211 -331 335 -83 126 -176 318 -222 460 -21 63
-45 117 -57 128 -28 23 -73 22 -99 -4 -18 -18 -21 -29 -16 -74 l5 -53 -61 -22
c-508 -185 -910 -619 -1107 -1195 -42 -122 -100 -336 -100 -367 0 -11 -8 -18
-19 -18 -24 0 -28 17 -41 175 -19 212 5 417 70 615 111 335 308 639 542 836
287 240 600 376 1020 444 165 26 172 26 413 28 132 1 249 -4 315 -12z m1600
-512 c130 -71 231 -244 229 -394 -1 -102 -10 -103 -64 -6 -58 102 -178 263
-270 360 -36 39 -65 72 -65 74 0 3 27 2 59 -1 38 -3 78 -15 111 -33z m403
-154 c486 -207 807 -866 807 -1658 0 -302 -43 -571 -92 -572 -5 0 -8 9 -8 20
0 37 -39 131 -72 176 -84 112 -220 110 -318 -4 -48 -57 -108 -170 -145 -273
l-27 -77 -101 -43 c-56 -23 -173 -75 -259 -115 -171 -79 -165 -79 -149 4 6 32
19 51 53 81 78 70 127 196 128 331 0 43 10 77 44 155 197 450 217 902 60 1377
l-25 76 26 51 c71 141 71 314 0 484 -10 23 -6 22 78 -13z m-5305 -1382 c35
-56 73 -187 90 -308 10 -65 23 -125 31 -134 7 -9 213 -172 457 -362 633 -493
584 -450 634 -535 25 -41 47 -77 48 -82 3 -5 -212 -388 -257 -456 -7 -11 -63
26 -258 171 -337 250 -864 634 -906 658 -33 19 -37 20 -98 5 -35 -8 -127 -20
-204 -26 -159 -12 -199 -6 -193 33 3 22 54 49 121 63 54 11 67 108 18 134 -9
5 -59 9 -112 8 -76 -1 -101 2 -122 16 -38 24 -45 63 -18 90 20 20 32 22 130
22 115 0 134 7 145 50 11 42 -10 74 -61 95 -128 53 -225 115 -248 159 -13 26
-13 30 4 45 36 33 156 8 270 -56 45 -25 59 -28 85 -21 17 5 37 20 45 34 23 42
8 72 -68 128 -106 79 -181 171 -167 207 15 38 104 4 263 -100 130 -85 162 -99
201 -85 29 10 59 60 47 78 -6 10 19 111 34 141 19 36 42 60 57 60 7 0 21 -15
32 -32z m978 -402 c0 -200 -1 -214 -17 -205 -26 13 -56 56 -70 96 -15 47 -7
196 14 245 15 36 50 78 65 78 4 0 7 -96 8 -214z m4851 -354 c27 -41 47 -132
38 -178 -6 -33 7 -72 29 -86 27 -18 90 -4 240 56 89 35 179 67 201 70 45 7 97
-4 103 -22 9 -27 -89 -110 -194 -163 -110 -56 -123 -71 -110 -124 4 -14 18
-32 32 -41 24 -16 29 -15 112 10 146 44 266 45 302 1 34 -41 -105 -118 -285
-155 -65 -14 -95 -38 -95 -78 0 -48 30 -70 107 -77 99 -9 155 -24 181 -47 28
-27 28 -39 -1 -66 -34 -32 -73 -36 -172 -17 -106 20 -131 15 -151 -29 -15 -30
-15 -35 0 -64 10 -19 27 -34 44 -38 38 -9 96 -40 111 -58 21 -25 -4 -46 -54
-46 -40 0 -216 35 -310 61 -22 6 -96 34 -164 61 l-124 50 -46 -22 c-54 -26
-882 -464 -1051 -556 -63 -34 -116 -61 -117 -60 -1 1 -46 141 -99 311 -92 295
-95 309 -78 322 76 56 831 426 1119 548 88 37 165 73 172 79 6 6 21 43 32 81
44 151 148 321 190 313 9 -2 25 -18 38 -36z m-1051 -454 c-18 -115 -16 -113
-137 -174 -61 -30 -113 -53 -115 -51 -2 2 16 39 41 83 25 43 45 82 45 86 0 18
117 97 144 98 28 0 28 -1 22 -42z m-3135 -600 c109 -78 312 -183 448 -232 l95
-33 36 -90 c46 -114 86 -176 158 -245 202 -193 494 -181 693 28 46 48 134 164
141 185 2 6 23 12 47 15 32 3 99 35 254 120 280 155 579 306 588 297 4 -5 71
-212 149 -461 77 -249 143 -459 146 -466 5 -12 -352 -119 -786 -236 -155 -42
-190 -80 -139 -152 21 -29 22 -38 22 -401 1 -353 -11 -612 -36 -847 l-12 -105
-70 -12 c-38 -6 -152 -17 -252 -23 -540 -33 -1141 75 -1674 300 l-76 32 49
116 c95 223 197 546 288 910 67 269 150 654 150 699 0 49 -24 73 -71 73 -50 0
-64 -22 -85 -128 l-17 -81 -31 16 c-211 108 -643 336 -649 342 -6 7 256 477
339 608 14 22 16 20 107 -70 52 -51 136 -122 188 -159z m923 -349 c70 -11 202
-24 293 -29 91 -4 167 -11 170 -14 11 -11 -133 -143 -182 -166 -112 -54 -260
-31 -353 54 -47 42 -104 123 -117 165 -7 23 -6 24 26 17 19 -4 92 -16 163 -27z
m-1556 -3060 c155 -141 356 -242 577 -290 33 -7 61 -13 63 -14 1 -1 -14 -26
-34 -56 -20 -30 -50 -82 -66 -115 -19 -40 -37 -64 -51 -69 -12 -3 -92 -9 -177
-12 -137 -5 -166 -3 -239 16 -102 25 -155 55 -213 120 -75 83 -87 183 -37 306
25 60 94 175 105 175 3 0 36 -27 72 -61z m2256 -227 c3 -5 13 -72 22 -151 14
-113 16 -157 7 -215 -18 -125 -13 -121 -208 -181 -93 -28 -182 -55 -196 -58
l-26 -7 -6 153 -5 152 62 65 c47 50 159 183 183 219 3 4 118 28 145 30 9 0 19
-3 22 -7z m246 -28 c153 -102 224 -445 143 -701 -22 -69 -69 -123 -108 -123
-64 0 -146 69 -193 163 l-23 46 35 45 c65 86 92 227 76 398 -10 105 -18 158
-27 192 -5 17 -1 18 26 13 17 -4 49 -18 71 -33z m-1608 -169 c117 -61 297
-124 430 -150 l88 -18 -25 -29 c-48 -57 -21 -128 50 -128 29 0 46 11 104 66
66 62 72 65 113 62 l43 -3 8 -76 c5 -42 5 -103 0 -135 l-8 -59 -90 -34 c-50
-18 -139 -45 -200 -59 -97 -23 -131 -26 -290 -27 -151 0 -189 3 -235 19 -83
28 -122 50 -167 95 -102 98 -113 201 -38 360 29 60 99 171 109 171 1 0 50 -25
108 -55z"/>
<path d="M29078 11625 c-42 -23 -44 -55 -14 -179 75 -302 225 -587 402 -761
74 -74 217 -172 262 -181 58 -12 107 71 70 118 -7 8 -42 32 -78 53 -221 132
-407 426 -505 798 -19 72 -40 136 -47 143 -21 21 -61 25 -90 9z"/>
<path d="M27738 11270 c-91 -27 -155 -109 -116 -148 19 -19 46 -14 71 14 47
55 119 71 153 33 29 -32 51 -41 74 -29 43 23 12 92 -54 124 -36 17 -84 19
-128 6z"/>
<path d="M27650 10161 c-5 -11 -10 -29 -10 -40 0 -16 -6 -21 -24 -21 -14 0
-37 -5 -52 -10 -24 -10 -30 -8 -49 16 -25 32 -72 36 -92 8 -16 -22 -16 -42 1
-73 12 -22 11 -29 -10 -60 -29 -46 -45 -116 -33 -147 13 -36 51 -50 89 -34 24
10 33 22 41 55 15 61 56 97 116 102 58 5 90 -10 120 -57 36 -55 42 -60 77 -60
98 0 82 129 -27 210 -39 29 -47 40 -47 67 0 17 -7 39 -16 47 -22 23 -71 20
-84 -3z"/>
<path d="M29272 10001 c-7 -4 -19 -24 -26 -45 -10 -29 -23 -42 -67 -64 -56
-28 -119 -98 -119 -131 0 -10 9 -30 21 -45 32 -41 69 -35 124 20 45 46 46 46
101 42 74 -6 111 -41 123 -116 10 -63 25 -82 65 -82 72 1 94 62 57 167 -17 49
-17 52 1 75 49 63 -19 133 -77 78 -21 -19 -22 -19 -70 -1 -45 17 -50 22 -52
52 -2 47 -45 74 -81 50z"/>
<path d="M28390 9891 c-7 -15 -5 -32 8 -68 14 -40 22 -49 45 -51 41 -5 60 15
53 56 -8 53 -32 82 -66 82 -19 0 -33 -7 -40 -19z"/>
<path d="M27814 9305 c-14 -22 -14 -29 1 -82 60 -207 210 -357 425 -424 63
-20 95 -24 200 -23 108 0 135 4 203 27 150 52 268 148 335 274 48 91 39 139
-24 131 -23 -2 -35 -16 -64 -66 -99 -170 -260 -262 -462 -262 -236 0 -446 155
-512 379 -9 30 -22 58 -29 63 -24 15 -57 8 -73 -17z"/>
<path d="M12030 12345 c-325 -40 -623 -126 -895 -260 -250 -123 -403 -233
-585 -421 -223 -232 -370 -490 -463 -816 l-32 -114 -69 -28 c-211 -87 -449
-317 -576 -558 l-36 -67 -44 46 c-88 90 -196 116 -270 63 -34 -24 -69 -89 -70
-127 0 -28 -6 -28 -61 -3 -52 23 -138 26 -178 5 -73 -37 -110 -123 -93 -215 6
-30 13 -63 17 -72 6 -15 1 -18 -34 -18 -57 0 -100 -20 -138 -63 -57 -65 -67
-169 -25 -242 19 -31 19 -31 -6 -49 -30 -23 -61 -90 -62 -134 0 -87 58 -155
212 -248 152 -92 290 -155 461 -213 l149 -49 176 -174 c199 -195 319 -301 539
-473 177 -138 170 -125 160 -321 -6 -107 -5 -112 17 -133 26 -25 78 -28 96 -6
7 8 18 15 24 15 7 0 52 20 101 45 50 25 93 45 97 45 4 0 27 -12 51 -27 l44
-26 -15 -59 c-21 -83 -13 -95 107 -162 150 -84 481 -245 609 -296 l113 -45 -5
-30 c-3 -16 -53 -337 -112 -713 -102 -654 -105 -684 -89 -708 9 -14 33 -33 53
-41 20 -8 38 -16 39 -17 4 -3 -63 -246 -70 -252 -3 -3 -29 7 -59 22 -70 35
-165 43 -237 19 -104 -34 -195 -133 -280 -303 -143 -286 -183 -632 -93 -808
29 -57 102 -118 159 -135 64 -18 165 -14 239 9 l61 19 31 -76 c67 -163 169
-293 269 -343 74 -36 178 -33 258 7 116 58 288 266 405 488 l35 67 93 0 c97 0
125 8 141 39 6 10 42 134 80 276 39 142 72 259 74 261 2 3 46 -118 97 -268 51
-150 100 -281 109 -291 14 -17 30 -18 149 -16 l133 3 66 -114 c137 -241 262
-383 389 -446 68 -34 78 -36 143 -32 52 4 82 12 118 33 103 61 198 187 259
343 22 56 31 71 43 66 145 -60 308 -45 389 37 75 74 101 158 102 320 1 333
-177 737 -372 844 -48 27 -62 30 -143 30 -101 0 -145 -17 -242 -94 l-51 -40
-57 165 c-31 91 -56 167 -54 169 2 1 21 10 41 18 20 8 44 27 53 41 16 24 11
58 -95 737 -61 392 -107 715 -103 719 4 3 53 26 108 50 200 86 466 226 688
362 117 72 119 76 91 199 -5 24 3 32 88 92 51 37 101 67 110 67 9 0 48 -11 86
-25 85 -31 106 -31 133 -4 23 23 23 46 0 157 l-8 42 161 138 c186 159 453 417
585 566 l92 103 107 39 c218 80 509 241 616 342 92 87 100 211 19 282 -28 25
-32 33 -23 49 5 11 15 42 21 69 27 126 -63 242 -187 242 -40 0 -45 2 -39 18 4
9 9 49 12 87 4 59 1 77 -19 114 -33 64 -66 84 -142 89 -58 4 -103 -8 -166 -45
-3 -2 -11 17 -18 41 -23 88 -102 146 -180 131 -77 -14 -165 -85 -207 -165
l-17 -33 -58 119 c-59 122 -136 235 -230 337 -102 112 -293 248 -410 293 -58
22 -64 29 -85 94 -27 85 -100 243 -156 342 -330 576 -947 934 -1739 1007 -149
14 -387 12 -520 -4z m665 -165 c517 -80 905 -266 1211 -582 177 -183 311 -404
398 -657 104 -299 125 -516 80 -811 -21 -134 -14 -125 -89 -125 l-65 0 -6 45
c-13 97 -58 281 -99 405 -177 541 -491 920 -950 1148 -161 80 -376 151 -526
172 -40 6 -51 13 -70 43 -19 30 -31 38 -60 40 -46 4 -80 -23 -81 -63 0 -17 12
-70 27 -120 39 -134 54 -244 50 -385 -4 -176 -40 -296 -126 -424 -27 -41 -49
-83 -49 -94 0 -35 38 -72 75 -72 45 0 99 62 159 183 69 140 90 239 90 432 1
91 -5 190 -12 229 -7 37 -11 70 -8 73 19 19 323 -79 466 -151 170 -85 280
-165 425 -311 193 -192 315 -387 420 -670 54 -145 113 -392 126 -525 13 -132
6 -362 -15 -495 -127 -801 -618 -1244 -1501 -1356 -128 -17 -481 -16 -605 0
-791 104 -1242 544 -1397 1362 -14 73 -17 144 -17 319 0 202 3 239 27 360 14
74 38 174 52 223 14 48 25 89 25 91 0 2 -15 7 -33 10 -18 3 -49 15 -70 26 -28
15 -39 17 -41 8 -28 -89 -38 -123 -52 -183 -31 -138 -55 -292 -61 -406 l-6
-116 -66 -7 c-36 -3 -68 -2 -72 2 -14 14 -67 248 -79 345 -18 145 -8 373 24
519 127 591 456 1016 997 1289 208 104 559 207 814 238 50 6 101 13 115 15 69
12 442 -3 575 -24z m1955 -1514 c127 -86 298 -282 370 -426 37 -74 100 -240
100 -264 0 -8 -24 0 -66 21 -56 28 -77 33 -136 33 -41 0 -80 -6 -97 -15 -41
-21 -79 -69 -92 -118 -21 -80 10 -236 72 -359 16 -32 29 -61 29 -66 0 -11
-201 -193 -350 -317 -163 -136 -479 -372 -468 -349 2 5 23 48 46 97 40 85 89
218 112 305 11 42 11 42 58 42 97 0 198 43 260 109 99 107 120 348 43 506
l-29 60 18 89 c47 223 51 456 14 685 l-7 45 39 -24 c21 -13 59 -37 84 -54z
m-4638 -270 c-7 -228 15 -395 80 -604 31 -100 31 -103 15 -138 -51 -106 -43
-297 18 -421 60 -121 150 -175 299 -179 l88 -2 44 -103 c25 -56 58 -127 75
-156 17 -29 27 -53 24 -53 -11 0 -310 205 -420 289 -94 71 -299 234 -375 299
l-34 29 33 83 c40 102 61 195 61 275 -1 179 -141 255 -317 171 -39 -19 -74
-39 -77 -45 -14 -22 -34 -10 -49 26 -17 43 -11 65 43 174 103 204 258 377 435
483 33 20 60 36 61 36 1 0 -1 -74 -4 -164z m5479 -213 c16 -40 4 -127 -31
-237 -31 -97 -32 -123 -4 -151 19 -19 78 -20 96 -2 7 8 29 44 47 80 63 125
171 231 216 213 32 -12 18 -86 -36 -196 -27 -57 -59 -116 -70 -131 -40 -57
-12 -129 51 -129 21 0 47 15 93 54 107 90 167 110 189 61 19 -42 -10 -87 -101
-152 -85 -62 -107 -96 -91 -138 18 -48 67 -57 131 -24 53 28 112 31 117 6 6
-28 -31 -62 -153 -142 -161 -106 -302 -174 -514 -246 -96 -33 -107 -40 -125
-84 -17 -40 -400 -427 -561 -566 -193 -167 -571 -459 -594 -459 -8 0 -222 574
-225 601 0 9 44 46 114 94 264 179 605 448 796 628 60 56 84 73 95 66 23 -15
55 -10 83 12 33 26 34 67 2 117 -93 149 -161 339 -141 401 15 49 137 9 207
-67 44 -48 70 -58 107 -42 30 12 67 81 131 243 45 115 65 150 105 185 44 39
53 40 66 5z m-6301 -130 c44 -31 60 -55 144 -228 45 -93 90 -178 100 -187 10
-10 32 -18 50 -18 27 0 40 9 74 49 65 77 189 128 206 85 22 -57 -14 -196 -90
-349 -29 -61 -54 -120 -54 -133 0 -12 10 -32 21 -43 18 -18 30 -20 67 -16 l46
5 130 -108 c239 -196 544 -413 786 -559 58 -35 106 -64 107 -65 2 -2 -10 -40
-26 -87 -15 -46 -59 -183 -96 -304 -37 -121 -72 -224 -76 -229 -18 -20 -463
297 -729 519 -167 140 -480 440 -480 460 0 24 -39 43 -210 98 -193 63 -313
117 -453 203 -105 64 -147 100 -147 125 0 28 34 31 97 9 90 -33 96 -33 126
-10 19 15 27 30 27 54 0 41 -12 55 -81 99 -81 50 -129 101 -129 136 0 73 69
66 183 -18 88 -66 123 -75 157 -41 30 30 25 73 -14 127 -62 88 -119 209 -120
255 -1 41 1 43 29 46 51 5 143 -84 210 -203 41 -73 54 -85 91 -85 38 0 74 32
74 64 0 12 -13 55 -29 96 -38 97 -56 186 -47 233 8 41 20 45 56 20z m5180
-218 c36 -32 55 -103 54 -200 0 -94 -18 -148 -61 -187 -23 -21 -96 -48 -130
-48 -24 0 -25 2 -19 44 11 71 26 266 26 338 0 55 3 67 18 72 31 9 93 -2 112
-19z m-3963 -302 c7 -62 23 -160 36 -218 13 -58 21 -107 19 -110 -9 -8 -55 -5
-97 6 -54 15 -108 73 -126 135 -19 68 -17 200 4 241 25 47 55 64 107 61 l44
-3 13 -112z m3468 -1292 c88 -239 185 -517 185 -531 0 -12 -243 -153 -415
-242 -127 -65 -347 -168 -359 -168 -2 0 -7 26 -11 58 -9 70 -19 90 -52 103
-35 13 -82 -6 -94 -38 -6 -18 26 -247 117 -834 70 -445 124 -812 121 -815 -16
-17 -228 -78 -357 -104 -219 -44 -411 -62 -680 -62 -269 0 -461 18 -680 62
-130 26 -341 87 -357 104 -3 3 51 370 120 816 91 581 124 816 118 833 -12 32
-59 51 -94 38 -33 -13 -43 -33 -52 -103 -4 -32 -12 -58 -18 -58 -34 0 -617
276 -680 323 -17 12 -15 22 33 182 76 252 190 605 196 605 3 0 38 -27 77 -61
198 -168 447 -286 733 -350 l100 -22 42 -82 c93 -182 234 -290 411 -315 221
-31 424 102 552 361 l32 67 97 25 c289 76 554 215 745 391 39 35 73 61 77 58
4 -4 46 -112 93 -241z m-1233 -329 c-89 -130 -181 -187 -302 -186 -89 0 -162
29 -230 90 -37 33 -100 114 -100 128 0 2 107 5 238 5 130 1 266 5 302 10 36 4
80 9 98 10 l33 1 -39 -58z m-2352 -51 c0 -5 -7 -11 -15 -15 -9 -3 -15 0 -15 9
0 8 7 15 15 15 8 0 15 -4 15 -9z m773 -2599 c62 -33 67 -40 53 -81 -9 -27 -20
-37 -60 -52 -97 -36 -172 -143 -197 -278 -10 -59 -9 -90 5 -203 9 -73 25 -170
35 -215 l18 -82 -51 -18 c-28 -9 -79 -17 -114 -18 -61 0 -65 2 -97 37 -44 47
-58 102 -58 213 0 241 137 590 269 692 63 48 114 49 197 5z m2844 6 c137 -82
284 -437 287 -693 2 -220 -67 -294 -235 -251 -35 9 -68 21 -72 25 -5 5 1 55
12 113 34 178 46 318 33 388 -31 171 -133 283 -268 297 -30 3 -54 9 -54 14 0
11 91 89 125 107 66 34 115 35 172 0z m-197 -294 c43 -36 71 -97 77 -165 6
-61 -15 -262 -26 -257 -4 2 -24 21 -44 44 -36 41 -37 41 -17 59 29 26 25 57
-24 209 -44 136 -44 136 -21 136 13 0 38 -12 55 -26z m-2676 -134 c-14 -57
-28 -107 -31 -110 -3 -3 -3 25 -1 61 5 57 41 169 52 158 3 -2 -7 -51 -20 -109z
m2646 -454 c31 -63 32 -69 21 -109 -20 -67 -87 -204 -126 -257 -76 -103 -152
-133 -233 -91 -50 26 -167 149 -229 241 -55 83 -127 210 -122 214 2 1 31 8 64
15 82 17 335 103 415 139 l65 31 56 -59 c32 -32 71 -88 89 -124z m-2414 49
c129 -33 303 -63 419 -71 59 -4 95 -11 95 -18 0 -17 -95 -171 -148 -240 -98
-128 -186 -196 -255 -196 -91 0 -197 128 -268 321 -26 73 -29 86 -18 113 19
48 60 116 70 116 5 0 52 -11 105 -25z"/>
<path d="M11535 11750 c-14 -16 -22 -52 -32 -153 -30 -297 -116 -560 -244
-748 -39 -58 -124 -149 -191 -206 -42 -35 -50 -72 -23 -110 39 -56 106 -30
224 88 198 198 333 518 381 899 17 141 14 206 -12 230 -28 26 -79 26 -103 0z"/>
<path d="M13043 11125 c-46 -20 -73 -51 -73 -85 0 -43 39 -51 81 -16 49 42
105 30 162 -33 15 -17 34 -31 41 -31 19 0 46 28 46 47 0 30 -53 85 -104 109
-57 27 -106 30 -153 9z"/>
<path d="M13142 10098 c-7 -7 -12 -31 -12 -53 0 -37 -4 -44 -37 -66 -24 -15
-48 -44 -66 -79 -25 -49 -28 -63 -25 -136 3 -71 6 -85 32 -118 78 -103 236
-81 282 39 15 40 15 55 5 116 -13 79 -31 121 -69 162 -19 20 -26 36 -24 60 5
53 -13 87 -46 87 -15 0 -33 -5 -40 -12z"/>
<path d="M11467 10012 c-10 -11 -17 -35 -17 -60 0 -32 -4 -42 -20 -47 -30 -9
-79 -53 -96 -86 -43 -83 -36 -211 14 -270 75 -90 219 -75 267 28 35 73 16 196
-43 272 -23 31 -26 44 -24 88 3 41 0 55 -17 72 -26 26 -43 26 -64 3z"/>
<path d="M12359 9803 c-19 -5 -49 -64 -49 -97 0 -53 63 -61 91 -11 30 53 32
72 10 94 -21 21 -24 22 -52 14z"/>
<path d="M12480 9199 c-226 -11 -533 -37 -634 -54 -51 -9 -86 -21 -99 -33 -19
-20 -19 -22 -2 -99 84 -378 301 -596 595 -597 295 -1 492 185 589 559 12 43
21 86 21 94 0 9 9 22 21 29 29 19 23 73 -11 88 -35 16 -272 22 -480 13z m350
-109 c12 -8 12 -18 -3 -81 -49 -204 -160 -379 -279 -440 -69 -35 -156 -52
-235 -45 -170 14 -296 108 -385 289 -36 72 -84 214 -76 222 9 9 257 34 443 44
105 6 208 13 230 15 95 7 291 5 305 -4z"/>
</g>
</svg>
